WixMadeforDisplay_Bd.ufo
<glyph name="numbersign" format="2">
	<unicode hex="0023"/>
	<advance width="704"/>
	<outline>
		<contour>
			<point x="466" y="0" type="line"/>
			<point x="618" y="715" type="line"/>
			<point x="500" y="715" type="line"/>
			<point x="348" y="0" type="line"/>
		</contour>
		<contour>
			<point x="586" y="166" type="line"/>
			<point x="608" y="269" type="line"/>
			<point x="57" y="269" type="line"/>
			<point x="35" y="166" type="line"/>
		</contour>
		<contour>
			<point x="237" y="715" type="line"/>
			<point x="85" y="0" type="line"/>
			<point x="203" y="0" type="line"/>
			<point x="355" y="715" type="line"/>
		</contour>
		<contour>
			<point x="117" y="549" type="line"/>
			<point x="95" y="446" type="line"/>
			<point x="646" y="446" type="line"/>
			<point x="668" y="549" type="line"/>
		</contour>
	</outline>
</glyph>
<glyph name="ampersand" format="2">
	<unicode hex="0026"/>
	<advance width="706"/>
	<outline>
		<contour>
			<point x="677" y="294" type="line"/>
			<point x="583" y="360" type="line"/>
			<point x="483" y="218" type="line" smooth="yes"/>
			<point x="414" y="117"/>
			<point x="358" y="89"/>
			<point x="295" y="89" type="curve" smooth="yes"/>
			<point x="220" y="89"/>
			<point x="171" y="138"/>
			<point x="171" y="201" type="curve" smooth="yes"/>
			<point x="171" y="262"/>
			<point x="210" y="312"/>
			<point x="303" y="343" type="curve"/>
			<point x="282" y="423" type="line"/>
			<point x="115" y="374"/>
			<point x="37" y="301"/>
			<point x="37" y="191" type="curve" smooth="yes"/>
			<point x="37" y="71"/>
			<point x="136" y="-16"/>
			<point x="289" y="-16" type="curve" smooth="yes"/>
			<point x="403" y="-16"/>
			<point x="488" y="33"/>
			<point x="576" y="153" type="curve" smooth="yes"/>
		</contour>
		<contour>
			<point x="699" y="75" type="line"/>
			<point x="352" y="384" type="line"/>
			<point x="330" y="401" type="line"/>
			<point x="249" y="467"/>
			<point x="225" y="503"/>
			<point x="225" y="548" type="curve" smooth="yes"/>
			<point x="225" y="595"/>
			<point x="265" y="633"/>
			<point x="312" y="633" type="curve" smooth="yes"/>
			<point x="364" y="633"/>
			<point x="402" y="594"/>
			<point x="402" y="544" type="curve" smooth="yes"/>
			<point x="402" y="492"/>
			<point x="359" y="449"/>
			<point x="285" y="426" type="curve"/>
			<point x="309" y="346" type="line"/>
			<point x="431" y="381"/>
			<point x="517" y="455"/>
			<point x="517" y="549" type="curve" smooth="yes"/>
			<point x="517" y="649"/>
			<point x="428" y="731"/>
			<point x="311" y="731" type="curve" smooth="yes"/>
			<point x="196" y="731"/>
			<point x="105" y="652"/>
			<point x="105" y="550" type="curve" smooth="yes"/>
			<point x="105" y="485"/>
			<point x="134" y="430"/>
			<point x="226" y="348" type="curve"/>
			<point x="247" y="332" type="line"/>
			<point x="620" y="-10" type="line"/>
		</contour>
	</outline>
</glyph>
<glyph name="parenleft" format="2">
	<unicode hex="0028"/>
	<advance width="343"/>
	<outline>
		<contour>
			<point x="46" y="302" type="curve" smooth="yes"/>
			<point x="46" y="141"/>
			<point x="94" y="-6"/>
			<point x="186" y="-129" type="curve"/>
			<point x="313" y="-129" type="line"/>
			<point x="220" y="11"/>
			<point x="174" y="152"/>
			<point x="174" y="302" type="curve" smooth="yes"/>
			<point x="174" y="451"/>
			<point x="220" y="591"/>
			<point x="313" y="731" type="curve"/>
			<point x="186" y="731" type="line"/>
			<point x="94" y="608"/>
			<point x="46" y="462"/>
		</contour>
	</outline>
</glyph>
<glyph name="parenright" format="2">
	<unicode hex="0029"/>
	<advance width="343"/>
	<outline>
		<contour>
			<point x="297" y="302" type="curve" smooth="yes"/>
			<point x="297" y="462"/>
			<point x="249" y="608"/>
			<point x="157" y="731" type="curve"/>
			<point x="30" y="731" type="line"/>
			<point x="123" y="591"/>
			<point x="169" y="451"/>
			<point x="169" y="302" type="curve" smooth="yes"/>
			<point x="169" y="152"/>
			<point x="123" y="11"/>
			<point x="30" y="-129" type="curve"/>
			<point x="157" y="-129" type="line"/>
			<point x="249" y="-6"/>
			<point x="297" y="141"/>
		</contour>
	</outline>
</glyph>
<glyph name="hyphen" format="2">
	<unicode hex="002D"/>
	<advance width="336"/>
	<outline>
		<contour>
			<point x="308" y="232" type="line"/>
			<point x="308" y="344" type="line"/>
			<point x="28" y="344" type="line"/>
			<point x="28" y="232" type="line"/>
		</contour>
	</outline>
</glyph>
<glyph name="slash" format="2">
	<unicode hex="002F"/>
	<advance width="505"/>
	<outline>
		<contour>
			<point x="171" y="0" type="line"/>
			<point x="459" y="731" type="line"/>
			<point x="334" y="731" type="line"/>
			<point x="46" y="0" type="line"/>
		</contour>
	</outline>
</glyph>
<glyph name="two" format="2">
	<unicode hex="0032"/>
	<advance width="598"/>
	<outline>
		<contour>
			<point x="546" y="0" type="line"/>
			<point x="546" y="108" type="line"/>
			<point x="218" y="108" type="line"/>
			<point x="263" y="145"/>
			<point x="326" y="197"/>
			<point x="370" y="235" type="curve" smooth="yes"/>
			<point x="487" y="338"/>
			<point x="542" y="416"/>
			<point x="542" y="508" type="curve" smooth="yes"/>
			<point x="542" y="636"/>
			<point x="447" y="731"/>
			<point x="298" y="731" type="curve" smooth="yes"/>
			<point x="188" y="731"/>
			<point x="100" y="683"/>
			<point x="33" y="595" type="curve"/>
			<point x="120" y="509" type="line"/>
			<point x="168" y="582"/>
			<point x="227" y="619"/>
			<point x="292" y="619" type="curve" smooth="yes"/>
			<point x="361" y="619"/>
			<point x="411" y="570"/>
			<point x="411" y="507" type="curve" smooth="yes"/>
			<point x="411" y="450"/>
			<point x="378" y="401"/>
			<point x="312" y="342" type="curve" smooth="yes"/>
			<point x="45" y="108" type="line"/>
			<point x="45" y="0" type="line"/>
		</contour>
	</outline>
</glyph>
<glyph name="five" format="2">
	<unicode hex="0035"/>
	<advance width="613"/>
	<outline>
		<contour>
			<point x="120" y="201" type="curve"/>
			<point x="33" y="115" type="line"/>
			<point x="101" y="27"/>
			<point x="193" y="-16"/>
			<point x="304" y="-16" type="curve" smooth="yes"/>
			<point x="458" y="-16"/>
			<point x="575" y="90"/>
			<point x="575" y="241" type="curve" smooth="yes"/>
			<point x="575" y="383"/>
			<point x="476" y="485"/>
			<point x="334" y="485" type="curve" smooth="yes"/>
			<point x="219" y="485"/>
			<point x="144" y="412"/>
			<point x="126" y="308" type="curve"/>
			<point x="171" y="305" type="line"/>
			<point x="204" y="351"/>
			<point x="249" y="377"/>
			<point x="306" y="377" type="curve" smooth="yes"/>
			<point x="386" y="377"/>
			<point x="442" y="321"/>
			<point x="442" y="241" type="curve" smooth="yes"/>
			<point x="442" y="158"/>
			<point x="383" y="96"/>
			<point x="300" y="96" type="curve" smooth="yes"/>
			<point x="223" y="96"/>
			<point x="164" y="137"/>
		</contour>
		<contour>
			<point x="535" y="607" type="line"/>
			<point x="535" y="715" type="line"/>
			<point x="105" y="715" type="line"/>
			<point x="56" y="305" type="line"/>
			<point x="171" y="305" type="line"/>
			<point x="215" y="673" type="line"/>
			<point x="155" y="607" type="line"/>
		</contour>
	</outline>
</glyph>
<glyph name="question" format="2">
	<unicode hex="003F"/>
	<advance width="576"/>
	<outline>
		<contour>
			<point x="321" y="224" type="line"/>
			<point x="321" y="274"/>
			<point x="339" y="304"/>
			<point x="404" y="342" type="curve" smooth="yes"/>
			<point x="488" y="392"/>
			<point x="530" y="449"/>
			<point x="530" y="523" type="curve" smooth="yes"/>
			<point x="530" y="641"/>
			<point x="428" y="731"/>
			<point x="290" y="731" type="curve" smooth="yes"/>
			<point x="190" y="731"/>
			<point x="97" y="684"/>
			<point x="29" y="599" type="curve"/>
			<point x="116" y="513" type="line"/>
			<point x="165" y="586"/>
			<point x="226" y="619"/>
			<point x="286" y="619" type="curve" smooth="yes"/>
			<point x="353" y="619"/>
			<point x="398" y="578"/>
			<point x="398" y="523" type="curve" smooth="yes"/>
			<point x="398" y="487"/>
			<point x="379" y="460"/>
			<point x="337" y="430" type="curve" smooth="yes"/>
			<point x="241" y="363"/>
			<point x="211" y="312"/>
			<point x="219" y="224" type="curve"/>
		</contour>
		<contour>
			<point x="354" y="71" type="curve" smooth="yes"/>
			<point x="354" y="116"/>
			<point x="317" y="152"/>
			<point x="271" y="152" type="curve" smooth="yes"/>
			<point x="225" y="152"/>
			<point x="188" y="116"/>
			<point x="188" y="71" type="curve" smooth="yes"/>
			<point x="188" y="25"/>
			<point x="225" y="-10"/>
			<point x="271" y="-10" type="curve" smooth="yes"/>
			<point x="317" y="-10"/>
			<point x="354" y="25"/>
		</contour>
	</outline>
</glyph>
<glyph name="B" format="2">
	<unicode hex="0042"/>
	<advance width="675"/>
	<outline>
		<contour>
			<point x="71" y="0" type="line"/>
			<point x="377" y="0" type="line" smooth="yes"/>
			<point x="530" y="0"/>
			<point x="634" y="82"/>
			<point x="634" y="207" type="curve" smooth="yes"/>
			<point x="634" y="325"/>
			<point x="530" y="400"/>
			<point x="377" y="400" type="curve" smooth="yes"/>
			<point x="216" y="400" type="line"/>
			<point x="216" y="349" type="line"/>
			<point x="368" y="349" type="line" smooth="yes"/>
			<point x="510" y="349"/>
			<point x="603" y="422"/>
			<point x="603" y="528" type="curve" smooth="yes"/>
			<point x="603" y="640"/>
			<point x="510" y="715"/>
			<point x="368" y="715" type="curve" smooth="yes"/>
			<point x="71" y="715" type="line"/>
		</contour>
		<contour>
			<point x="206" y="113" type="line"/>
			<point x="206" y="602" type="line"/>
			<point x="361" y="602" type="line" smooth="yes"/>
			<point x="427" y="602"/>
			<point x="467" y="569"/>
			<point x="467" y="514" type="curve" smooth="yes"/>
			<point x="467" y="456"/>
			<point x="427" y="422"/>
			<point x="361" y="422" type="curve" smooth="yes"/>
			<point x="196" y="422" type="line"/>
			<point x="196" y="311" type="line"/>
			<point x="378" y="311" type="line" smooth="yes"/>
			<point x="452" y="311"/>
			<point x="497" y="275"/>
			<point x="497" y="214" type="curve" smooth="yes"/>
			<point x="497" y="150"/>
			<point x="452" y="113"/>
			<point x="378" y="113" type="curve" smooth="yes"/>
		</contour>
	</outline>
</glyph>
<glyph name="D" format="2">
	<unicode hex="0044"/>
	<advance width="755"/>
	<outline>
		<contour>
			<point x="71" y="0" type="line"/>
			<point x="321" y="0" type="line" smooth="yes"/>
			<point x="551" y="0"/>
			<point x="706" y="149"/>
			<point x="706" y="358" type="curve" smooth="yes"/>
			<point x="706" y="566"/>
			<point x="551" y="715"/>
			<point x="321" y="715" type="curve" smooth="yes"/>
			<point x="71" y="715" type="line"/>
		</contour>
		<contour>
			<point x="206" y="115" type="line"/>
			<point x="206" y="600" type="line"/>
			<point x="321" y="600" type="line" smooth="yes"/>
			<point x="471" y="600"/>
			<point x="564" y="504"/>
			<point x="564" y="358" type="curve" smooth="yes"/>
			<point x="564" y="211"/>
			<point x="471" y="115"/>
			<point x="321" y="115" type="curve" smooth="yes"/>
		</contour>
	</outline>
	<anchor name="top.UC" x="342" y="750"/>
</glyph>
<glyph name="F" format="2">
	<unicode hex="0046"/>
	<advance width="592"/>
	<outline>
		<contour>
			<point x="206" y="0" type="line"/>
			<point x="206" y="601" type="line"/>
			<point x="554" y="601" type="line"/>
			<point x="554" y="715" type="line"/>
			<point x="71" y="715" type="line"/>
			<point x="71" y="0" type="line"/>
		</contour>
		<contour>
			<point x="535" y="305" type="line"/>
			<point x="535" y="419" type="line"/>
			<point x="196" y="419" type="line"/>
			<point x="196" y="305" type="line"/>
		</contour>
	</outline>
</glyph>
<glyph name="H" format="2">
	<unicode hex="0048"/>
	<advance width="753"/>
	<outline>
		<contour>
			<point x="547" y="0" type="line"/>
			<point x="682" y="0" type="line"/>
			<point x="682" y="715" type="line"/>
			<point x="547" y="715" type="line"/>
		</contour>
		<contour>
			<point x="206" y="0" type="line"/>
			<point x="206" y="715" type="line"/>
			<point x="71" y="715" type="line"/>
			<point x="71" y="0" type="line"/>
		</contour>
		<contour>
			<point x="196" y="310" type="line"/>
			<point x="557" y="310" type="line"/>
			<point x="557" y="425" type="line"/>
			<point x="196" y="425" type="line"/>
		</contour>
	</outline>
	<anchor name="bottom.UC" x="376" y="-50"/>
	<anchor name="top.UC" x="376" y="750"/>
</glyph>
<glyph name="L" format="2">
	<unicode hex="004C"/>
	<advance width="576"/>
	<outline>
		<contour>
			<point x="544" y="0" type="line"/>
			<point x="544" y="117" type="line"/>
			<point x="206" y="117" type="line"/>
			<point x="206" y="715" type="line"/>
			<point x="71" y="715" type="line"/>
			<point x="71" y="0" type="line"/>
		</contour>
	</outline>
	<anchor name="bottom.UC" x="307" y="-50"/>
	<anchor name="top.UC" x="124" y="750"/>
	<anchor name="top_right" x="374" y="540"/>
</glyph>
<glyph name="P" format="2">
	<unicode hex="0050"/>
	<advance width="657"/>
	<outline>
		<contour>
			<point x="206" y="0" type="line"/>
			<point x="206" y="601" type="line"/>
			<point x="361" y="601" type="line" smooth="yes"/>
			<point x="435" y="601"/>
			<point x="481" y="561"/>
			<point x="481" y="497" type="curve" smooth="yes"/>
			<point x="481" y="432"/>
			<point x="435" y="392"/>
			<point x="361" y="392" type="curve" smooth="yes"/>
			<point x="196" y="392" type="line"/>
			<point x="196" y="278" type="line"/>
			<point x="361" y="278" type="line" smooth="yes"/>
			<point x="514" y="278"/>
			<point x="618" y="366"/>
			<point x="618" y="497" type="curve" smooth="yes"/>
			<point x="618" y="627"/>
			<point x="514" y="715"/>
			<point x="361" y="715" type="curve" smooth="yes"/>
			<point x="71" y="715" type="line"/>
			<point x="71" y="0" type="line"/>
		</contour>
	</outline>
</glyph>
<glyph name="S" format="2">
	<unicode hex="0053"/>
	<advance width="699"/>
	<outline>
		<contour>
			<point x="33" y="117" type="line"/>
			<point x="106" y="37"/>
			<point x="215" y="-17"/>
			<point x="353" y="-17" type="curve" smooth="yes"/>
			<point x="528" y="-17"/>
			<point x="651" y="71"/>
			<point x="651" y="207" type="curve" smooth="yes"/>
			<point x="651" y="329"/>
			<point x="564" y="399"/>
			<point x="371" y="428" type="curve" smooth="yes"/>
			<point x="242" y="448"/>
			<point x="201" y="471"/>
			<point x="201" y="518" type="curve" smooth="yes"/>
			<point x="201" y="576"/>
			<point x="261" y="614"/>
			<point x="348" y="614" type="curve" smooth="yes"/>
			<point x="432" y="614"/>
			<point x="504" y="573"/>
			<point x="554" y="508" type="curve"/>
			<point x="644" y="598" type="line"/>
			<point x="575" y="678"/>
			<point x="474" y="731"/>
			<point x="346" y="731" type="curve" smooth="yes"/>
			<point x="182" y="731"/>
			<point x="63" y="640"/>
			<point x="63" y="510" type="curve" smooth="yes"/>
			<point x="63" y="398"/>
			<point x="144" y="333"/>
			<point x="338" y="304" type="curve" smooth="yes"/>
			<point x="470" y="284"/>
			<point x="514" y="253"/>
			<point x="514" y="200" type="curve" smooth="yes"/>
			<point x="514" y="140"/>
			<point x="453" y="100"/>
			<point x="356" y="100" type="curve" smooth="yes"/>
			<point x="265" y="100"/>
			<point x="176" y="142"/>
			<point x="124" y="208" type="curve"/>
		</contour>
	</outline>
	<anchor name="top.UC" x="347" y="750"/>
	<anchor name="bottom.UC" x="355" y="-50"/>
</glyph>
<glyph name="U" format="2">
	<unicode hex="0055"/>
	<advance width="739"/>
	<outline>
		<contour>
			<point x="675" y="715" type="line"/>
			<point x="541" y="715" type="line"/>
			<point x="541" y="282" type="line" smooth="yes"/>
			<point x="541" y="173"/>
			<point x="477" y="104"/>
			<point x="369" y="104" type="curve" smooth="yes"/>
			<point x="262" y="104"/>
			<point x="199" y="173"/>
			<point x="199" y="282" type="curve" smooth="yes"/>
			<point x="199" y="715" type="line"/>
			<point x="64" y="715" type="line"/>
			<point x="64" y="282" type="line" smooth="yes"/>
			<point x="64" y="94"/>
			<point x="179" y="-16"/>
			<point x="369" y="-16" type="curve" smooth="yes"/>
			<point x="560" y="-16"/>
			<point x="675" y="94"/>
			<point x="675" y="282" type="curve" smooth="yes"/>
		</contour>
	</outline>
	<anchor name="bottom.UC" x="371" y="-50"/>
	<anchor name="ogonek.UC.round" x="411" y="-30"/>
	<anchor name="top.UC" x="370" y="750"/>
	<anchor name="topright.UC" x="550" y="750"/>
</glyph>
<glyph name="Z" format="2">
	<unicode hex="005A"/>
	<advance width="644"/>
	<outline>
		<contour>
			<point x="601" y="0" type="line"/>
			<point x="601" y="115" type="line"/>
			<point x="211" y="115" type="line"/>
			<point x="588" y="600" type="line"/>
			<point x="588" y="715" type="line"/>
			<point x="58" y="715" type="line"/>
			<point x="58" y="600" type="line"/>
			<point x="421" y="600" type="line"/>
			<point x="43" y="115" type="line"/>
			<point x="43" y="0" type="line"/>
		</contour>
	</outline>
	<anchor name="top.UC" x="322" y="750"/>
</glyph>
<glyph name="bracketleft" format="2">
	<unicode hex="005B"/>
	<advance width="322"/>
	<outline>
		<contour>
			<point x="292" y="-129" type="line"/>
			<point x="292" y="-26" type="line"/>
			<point x="184" y="-26" type="line"/>
			<point x="184" y="628" type="line"/>
			<point x="292" y="628" type="line"/>
			<point x="292" y="731" type="line"/>
			<point x="55" y="731" type="line"/>
			<point x="55" y="-129" type="line"/>
		</contour>
	</outline>
</glyph>
<glyph name="f" format="2">
	<unicode hex="0066"/>
	<advance width="411"/>
	<outline>
		<contour>
			<point x="254" y="0" type="line"/>
			<point x="254" y="561" type="line" smooth="yes"/>
			<point x="254" y="601"/>
			<point x="269" y="617"/>
			<point x="309" y="617" type="curve" smooth="yes"/>
			<point x="379" y="617" type="line"/>
			<point x="379" y="720" type="line"/>
			<point x="263" y="720" type="line" smooth="yes"/>
			<point x="168" y="720"/>
			<point x="122" y="674"/>
			<point x="122" y="579" type="curve" smooth="yes"/>
			<point x="122" y="0" type="line"/>
		</contour>
		<contour>
			<point x="379" y="396" type="line"/>
			<point x="379" y="503" type="line"/>
			<point x="34" y="503" type="line"/>
			<point x="34" y="396" type="line"/>
		</contour>
	</outline>
</glyph>
<glyph name="i" format="2">
	<unicode hex="0069"/>
	<advance width="249"/>
	<outline>
		<contour>
			<point x="190" y="0" type="line"/>
			<point x="190" y="503" type="line"/>
			<point x="58" y="503" type="line"/>
			<point x="58" y="0" type="line"/>
		</contour>
		<contour>
			<point x="124" y="590" type="curve" smooth="yes"/>
			<point x="169" y="590"/>
			<point x="204" y="624"/>
			<point x="204" y="667" type="curve" smooth="yes"/>
			<point x="204" y="711"/>
			<point x="169" y="745"/>
			<point x="124" y="745" type="curve" smooth="yes"/>
			<point x="79" y="745"/>
			<point x="44" y="711"/>
			<point x="44" y="667" type="curve" smooth="yes"/>
			<point x="44" y="624"/>
			<point x="79" y="590"/>
		</contour>
	</outline>
	<anchor name="bottom.LC" x="124" y="-50"/>
	<anchor name="ogonek.LC" x="64" y="-30"/>
</glyph>
<glyph name="k" format="2">
	<unicode hex="006B"/>
	<advance width="605"/>
	<outline>
		<contour>
			<point x="190" y="0" type="line"/>
			<point x="190" y="720" type="line"/>
			<point x="58" y="720" type="line"/>
			<point x="58" y="0" type="line"/>
		</contour>
		<contour>
			<point x="593" y="0" type="line"/>
			<point x="313" y="271" type="line"/>
			<point x="313" y="251" type="line"/>
			<point x="564" y="503" type="line"/>
			<point x="406" y="503" type="line"/>
			<point x="171" y="261" type="line"/>
			<point x="161" y="261" type="line"/>
			<point x="425" y="0" type="line"/>
		</contour>
	</outline>
	<anchor name="bottom.LC" x="312" y="-50"/>
</glyph>
<glyph name="m" format="2">
	<unicode hex="006D"/>
	<advance width="918"/>
	<outline>
		<contour>
			<point x="865" y="0" type="line"/>
			<point x="865" y="304" type="line" smooth="yes"/>
			<point x="865" y="443"/>
			<point x="795" y="519"/>
			<point x="679" y="519" type="curve" smooth="yes"/>
			<point x="606" y="519"/>
			<point x="523" y="487"/>
			<point x="494" y="381" type="curve"/>
			<point x="508" y="381" type="line"/>
			<point x="490" y="473"/>
			<point x="431" y="519"/>
			<point x="346" y="519" type="curve" smooth="yes"/>
			<point x="280" y="519"/>
			<point x="208" y="489"/>
			<point x="181" y="390" type="curve"/>
			<point x="189" y="389" type="line"/>
			<point x="189" y="503" type="line"/>
			<point x="58" y="503" type="line"/>
			<point x="58" y="0" type="line"/>
			<point x="190" y="0" type="line"/>
			<point x="190" y="249" type="line" smooth="yes"/>
			<point x="190" y="362"/>
			<point x="246" y="409"/>
			<point x="306" y="409" type="curve" smooth="yes"/>
			<point x="361" y="409"/>
			<point x="396" y="371"/>
			<point x="396" y="294" type="curve" smooth="yes"/>
			<point x="396" y="0" type="line"/>
			<point x="528" y="0" type="line"/>
			<point x="528" y="249" type="line" smooth="yes"/>
			<point x="528" y="362"/>
			<point x="583" y="409"/>
			<point x="644" y="409" type="curve" smooth="yes"/>
			<point x="699" y="409"/>
			<point x="733" y="371"/>
			<point x="733" y="294" type="curve" smooth="yes"/>
			<point x="733" y="0" type="line"/>
		</contour>
	</outline>
</glyph>
<glyph name="t" format="2">
	<unicode hex="0074"/>
	<advance width="420"/>
	<outline>
		<contour>
			<point x="384" y="0" type="line"/>
			<point x="384" y="108" type="line"/>
			<point x="303" y="108" type="line" smooth="yes"/>
			<point x="268" y="108"/>
			<point x="253" y="124"/>
			<point x="253" y="160" type="curve" smooth="yes"/>
			<point x="253" y="636" type="line"/>
			<point x="121" y="636" type="line"/>
			<point x="121" y="137" type="line"/>
			<point x="121" y="46"/>
			<point x="167" y="0"/>
			<point x="258" y="0" type="curve" smooth="yes"/>
		</contour>
		<contour>
			<point x="378" y="396" type="line"/>
			<point x="378" y="503" type="line"/>
			<point x="33" y="503" type="line"/>
			<point x="33" y="396" type="line"/>
		</contour>
	</outline>
	<anchor name="bottom.LC" x="267" y="-50"/>
	<anchor name="top_right.LC.short" x="328" y="540"/>
</glyph>
<glyph name="x" format="2">
	<unicode hex="0078"/>
	<advance width="585"/>
	<outline>
		<contour>
			<point x="166" y="0" type="line"/>
			<point x="292" y="182" type="line"/>
			<point x="419" y="0" type="line"/>
			<point x="568" y="0" type="line"/>
			<point x="376" y="261" type="line"/>
			<point x="553" y="503" type="line"/>
			<point x="404" y="503" type="line"/>
			<point x="292" y="338" type="line"/>
			<point x="181" y="503" type="line"/>
			<point x="33" y="503" type="line"/>
			<point x="209" y="261" type="line"/>
			<point x="17" y="0" type="line"/>
		</contour>
	</outline>
</glyph>
<glyph name="braceleft" format="2">
	<unicode hex="007B"/>
	<advance width="393"/>
	<outline>
		<contour>
			<point x="358" y="-26" type="line"/>
			<point x="305" y="-26" type="line" smooth="yes"/>
			<point x="265" y="-26"/>
			<point x="250" y="-10"/>
			<point x="250" y="30" type="curve" smooth="yes"/>
			<point x="250" y="174" type="line" smooth="yes"/>
			<point x="250" y="269"/>
			<point x="205" y="315"/>
			<point x="109" y="315" type="curve"/>
			<point x="109" y="289" type="line"/>
			<point x="205" y="289"/>
			<point x="250" y="334"/>
			<point x="250" y="430" type="curve" smooth="yes"/>
			<point x="250" y="572" type="line" smooth="yes"/>
			<point x="250" y="612"/>
			<point x="265" y="628"/>
			<point x="305" y="628" type="curve" smooth="yes"/>
			<point x="358" y="628" type="line"/>
			<point x="358" y="731" type="line"/>
			<point x="262" y="731" type="line" smooth="yes"/>
			<point x="167" y="731"/>
			<point x="121" y="685"/>
			<point x="121" y="590" type="curve" smooth="yes"/>
			<point x="121" y="409" type="line" smooth="yes"/>
			<point x="121" y="369"/>
			<point x="106" y="353"/>
			<point x="67" y="353" type="curve" smooth="yes"/>
			<point x="37" y="353" type="line"/>
			<point x="37" y="250" type="line"/>
			<point x="67" y="250" type="line" smooth="yes"/>
			<point x="106" y="250"/>
			<point x="121" y="235"/>
			<point x="121" y="195" type="curve" smooth="yes"/>
			<point x="121" y="12" type="line" smooth="yes"/>
			<point x="121" y="-83"/>
			<point x="167" y="-129"/>
			<point x="262" y="-129" type="curve" smooth="yes"/>
			<point x="358" y="-129" type="line"/>
		</contour>
	</outline>
</glyph>
<glyph name="asciitilde" format="2">
	<unicode hex="007E"/>
	<advance width="660"/>
	<outline>
		<contour>
			<point x="493" y="461" type="line"/>
			<point x="479" y="403"/>
			<point x="456" y="370"/>
			<point x="422" y="370" type="curve" smooth="yes"/>
			<point x="406" y="370"/>
			<point x="394" y="377"/>
			<point x="347" y="412" type="curve" smooth="yes"/>
			<point x="299" y="449"/>
			<point x="262" y="463"/>
			<point x="232" y="463" type="curve" smooth="yes"/>
			<point x="157" y="463"/>
			<point x="104" y="416"/>
			<point x="72" y="307" type="curve"/>
			<point x="167" y="253" type="line"/>
			<point x="181" y="311"/>
			<point x="204" y="344"/>
			<point x="238" y="344" type="curve" smooth="yes"/>
			<point x="254" y="344"/>
			<point x="266" y="337"/>
			<point x="313" y="302" type="curve" smooth="yes"/>
			<point x="361" y="265"/>
			<point x="398" y="251"/>
			<point x="428" y="251" type="curve" smooth="yes"/>
			<point x="503" y="251"/>
			<point x="556" y="298"/>
			<point x="588" y="407" type="curve"/>
		</contour>
	</outline>
</glyph>
<glyph name="exclamdown" format="2">
	<unicode hex="00A1"/>
	<advance width="262"/>
	<outline>
		<contour>
			<point x="48" y="422" type="curve" smooth="yes"/>
			<point x="48" y="377"/>
			<point x="85" y="341"/>
			<point x="131" y="341" type="curve" smooth="yes"/>
			<point x="177" y="341"/>
			<point x="214" y="377"/>
			<point x="214" y="422" type="curve" smooth="yes"/>
			<point x="214" y="468"/>
			<point x="177" y="503"/>
			<point x="131" y="503" type="curve" smooth="yes"/>
			<point x="85" y="503"/>
			<point x="48" y="468"/>
		</contour>
		<contour>
			<point x="98" y="269" type="line"/>
			<point x="91" y="208"/>
			<point x="56" y="-139"/>
			<point x="56" y="-167" type="curve" smooth="yes"/>
			<point x="56" y="-208"/>
			<point x="89" y="-238"/>
			<point x="131" y="-238" type="curve" smooth="yes"/>
			<point x="173" y="-238"/>
			<point x="206" y="-208"/>
			<point x="206" y="-167" type="curve" smooth="yes"/>
			<point x="206" y="-139"/>
			<point x="171" y="208"/>
			<point x="164" y="269" type="curve"/>
		</contour>
	</outline>
</glyph>
<glyph name="currency" format="2">
	<unicode hex="00A4"/>
	<advance width="587"/>
	<outline>
		<contour>
			<point x="293" y="254" type="curve" smooth="yes"/>
			<point x="228" y="254"/>
			<point x="178" y="306"/>
			<point x="178" y="375" type="curve" smooth="yes"/>
			<point x="178" y="444"/>
			<point x="228" y="496"/>
			<point x="293" y="496" type="curve" smooth="yes"/>
			<point x="358" y="496"/>
			<point x="408" y="444"/>
			<point x="408" y="375" type="curve" smooth="yes"/>
			<point x="408" y="306"/>
			<point x="358" y="254"/>
		</contour>
		<contour>
			<point x="293" y="159" type="curve" smooth="yes"/>
			<point x="336" y="159"/>
			<point x="376" y="171"/>
			<point x="410" y="192" type="curve"/>
			<point x="485" y="117" type="line"/>
			<point x="544" y="176" type="line"/>
			<point x="472" y="249" type="line"/>
			<point x="497" y="284"/>
			<point x="512" y="328"/>
			<point x="512" y="375" type="curve" smooth="yes"/>
			<point x="512" y="422"/>
			<point x="497" y="466"/>
			<point x="472" y="501" type="curve"/>
			<point x="544" y="574" type="line"/>
			<point x="485" y="633" type="line"/>
			<point x="410" y="558" type="line"/>
			<point x="376" y="579"/>
			<point x="336" y="591"/>
			<point x="293" y="591" type="curve" smooth="yes"/>
			<point x="250" y="591"/>
			<point x="210" y="579"/>
			<point x="176" y="558" type="curve"/>
			<point x="101" y="633" type="line"/>
			<point x="42" y="574" type="line"/>
			<point x="114" y="501" type="line"/>
			<point x="89" y="466"/>
			<point x="74" y="422"/>
			<point x="74" y="375" type="curve" smooth="yes"/>
			<point x="74" y="328"/>
			<point x="89" y="284"/>
			<point x="114" y="249" type="curve"/>
			<point x="42" y="176" type="line"/>
			<point x="101" y="117" type="line"/>
			<point x="176" y="192" type="line"/>
			<point x="210" y="171"/>
			<point x="250" y="159"/>
		</contour>
	</outline>
</glyph>
<glyph name="yen" format="2">
	<unicode hex="00A5"/>
	<advance width="660"/>
	<outline>
		<contour>
			<point x="394" y="0" type="line"/>
			<point x="394" y="308" type="line"/>
			<point x="639" y="715" type="line"/>
			<point x="497" y="715" type="line"/>
			<point x="319" y="403" type="line"/>
			<point x="343" y="403" type="line"/>
			<point x="165" y="715" type="line"/>
			<point x="22" y="715" type="line"/>
			<point x="266" y="309" type="line"/>
			<point x="266" y="0" type="line"/>
		</contour>
		<contour>
			<point x="565" y="128" type="line"/>
			<point x="565" y="219" type="line"/>
			<point x="95" y="219" type="line"/>
			<point x="95" y="128" type="line"/>
		</contour>
		<contour>
			<point x="565" y="283" type="line"/>
			<point x="565" y="374" type="line"/>
			<point x="95" y="374" type="line"/>
			<point x="95" y="283" type="line"/>
		</contour>
	</outline>
</glyph>
<glyph name="registered" format="2">
	<unicode hex="00AE"/>
	<advance width="527"/>
	<outline>
		<contour>
			<point x="225" y="384" type="line"/>
			<point x="225" y="560" type="line"/>
			<point x="272" y="560" type="line" smooth="yes"/>
			<point x="294" y="560"/>
			<point x="308" y="547"/>
			<point x="308" y="530" type="curve" smooth="yes"/>
			<point x="308" y="513"/>
			<point x="294" y="501"/>
			<point x="272" y="501" type="curve" smooth="yes"/>
			<point x="222" y="501" type="line"/>
			<point x="222" y="456" type="line"/>
			<point x="272" y="456" type="line" smooth="yes"/>
			<point x="325" y="456"/>
			<point x="361" y="486"/>
			<point x="361" y="530" type="curve" smooth="yes"/>
			<point x="361" y="574"/>
			<point x="325" y="604"/>
			<point x="272" y="604" type="curve" smooth="yes"/>
			<point x="174" y="604" type="line"/>
			<point x="174" y="384" type="line"/>
		</contour>
		<contour>
			<point x="378" y="384" type="line"/>
			<point x="297" y="471" type="line"/>
			<point x="237" y="471" type="line"/>
			<point x="316" y="384" type="line"/>
		</contour>
		<contour>
			<point x="263" y="251" type="curve" smooth="yes"/>
			<point x="391" y="251"/>
			<point x="495" y="357"/>
			<point x="495" y="488" type="curve" smooth="yes"/>
			<point x="495" y="619"/>
			<point x="391" y="725"/>
			<point x="263" y="725" type="curve" smooth="yes"/>
			<point x="136" y="725"/>
			<point x="32" y="619"/>
			<point x="32" y="488" type="curve" smooth="yes"/>
			<point x="32" y="357"/>
			<point x="136" y="251"/>
		</contour>
		<contour>
			<point x="263" y="318" type="curve" smooth="yes"/>
			<point x="169" y="318"/>
			<point x="100" y="387"/>
			<point x="100" y="488" type="curve" smooth="yes"/>
			<point x="100" y="589"/>
			<point x="169" y="658"/>
			<point x="263" y="658" type="curve" smooth="yes"/>
			<point x="357" y="658"/>
			<point x="426" y="589"/>
			<point x="426" y="488" type="curve" smooth="yes"/>
			<point x="426" y="387"/>
			<point x="357" y="318"/>
		</contour>
	</outline>
</glyph>
<glyph name="degree" format="2">
	<unicode hex="00B0"/>
	<advance width="478"/>
	<outline>
		<contour>
			<point x="240" y="371" type="curve" smooth="yes"/>
			<point x="341" y="371"/>
			<point x="423" y="452"/>
			<point x="423" y="551" type="curve" smooth="yes"/>
			<point x="423" y="650"/>
			<point x="341" y="731"/>
			<point x="240" y="731" type="curve" smooth="yes"/>
			<point x="138" y="731"/>
			<point x="55" y="650"/>
			<point x="55" y="551" type="curve" smooth="yes"/>
			<point x="55" y="452"/>
			<point x="138" y="371"/>
		</contour>
		<contour>
			<point x="240" y="462" type="curve" smooth="yes"/>
			<point x="192" y="462"/>
			<point x="155" y="501"/>
			<point x="155" y="551" type="curve" smooth="yes"/>
			<point x="155" y="601"/>
			<point x="192" y="640"/>
			<point x="240" y="640" type="curve" smooth="yes"/>
			<point x="287" y="640"/>
			<point x="324" y="601"/>
			<point x="324" y="551" type="curve" smooth="yes"/>
			<point x="324" y="501"/>
			<point x="287" y="462"/>
		</contour>
	</outline>
</glyph>
<glyph name="questiondown" format="2">
	<unicode hex="00BF"/>
	<advance width="576"/>
	<outline>
		<contour>
			<point x="255" y="269" type="line"/>
			<point x="255" y="219"/>
			<point x="237" y="189"/>
			<point x="172" y="151" type="curve" smooth="yes"/>
			<point x="88" y="101"/>
			<point x="46" y="44"/>
			<point x="46" y="-30" type="curve" smooth="yes"/>
			<point x="46" y="-148"/>
			<point x="148" y="-238"/>
			<point x="286" y="-238" type="curve" smooth="yes"/>
			<point x="386" y="-238"/>
			<point x="479" y="-191"/>
			<point x="547" y="-106" type="curve"/>
			<point x="460" y="-20" type="line"/>
			<point x="411" y="-93"/>
			<point x="350" y="-126"/>
			<point x="290" y="-126" type="curve" smooth="yes"/>
			<point x="223" y="-126"/>
			<point x="178" y="-85"/>
			<point x="178" y="-30" type="curve" smooth="yes"/>
			<point x="178" y="6"/>
			<point x="197" y="33"/>
			<point x="239" y="63" type="curve" smooth="yes"/>
			<point x="335" y="130"/>
			<point x="365" y="181"/>
			<point x="357" y="269" type="curve"/>
		</contour>
		<contour>
			<point x="222" y="422" type="curve" smooth="yes"/>
			<point x="222" y="377"/>
			<point x="259" y="341"/>
			<point x="305" y="341" type="curve" smooth="yes"/>
			<point x="351" y="341"/>
			<point x="388" y="377"/>
			<point x="388" y="422" type="curve" smooth="yes"/>
			<point x="388" y="468"/>
			<point x="351" y="503"/>
			<point x="305" y="503" type="curve" smooth="yes"/>
			<point x="259" y="503"/>
			<point x="222" y="468"/>
		</contour>
	</outline>
</glyph>
<glyph name="AE" format="2">
	<unicode hex="00C6"/>
	<advance width="1080"/>
	<outline>
		<contour>
			<point x="600" y="715" type="line"/>
			<point x="471" y="715" type="line"/>
			<point x="20" y="0" type="line"/>
			<point x="165" y="0" type="line"/>
		</contour>
		<contour>
			<point x="592" y="157" type="line"/>
			<point x="592" y="271" type="line"/>
			<point x="234" y="271" type="line"/>
			<point x="234" y="157" type="line"/>
		</contour>
		<contour>
			<point x="1035" y="0" type="line"/>
			<point x="1035" y="114" type="line"/>
			<point x="667" y="114" type="line"/>
			<point x="667" y="601" type="line"/>
			<point x="1035" y="601" type="line"/>
			<point x="1035" y="715" type="line"/>
			<point x="532" y="715" type="line"/>
			<point x="532" y="0" type="line"/>
		</contour>
		<contour>
			<point x="1016" y="305" type="line"/>
			<point x="1016" y="419" type="line"/>
			<point x="657" y="419" type="line"/>
			<point x="657" y="305" type="line"/>
		</contour>
	</outline>
</glyph>
<glyph name="Oslash" format="2">
	<unicode hex="00D8"/>
	<advance width="864"/>
	<outline>
		<contour>
			<point x="432" y="-16" type="curve" smooth="yes"/>
			<point x="654" y="-16"/>
			<point x="814" y="143"/>
			<point x="814" y="358" type="curve" smooth="yes"/>
			<point x="814" y="572"/>
			<point x="654" y="731"/>
			<point x="432" y="731" type="curve" smooth="yes"/>
			<point x="211" y="731"/>
			<point x="50" y="572"/>
			<point x="50" y="358" type="curve" smooth="yes"/>
			<point x="50" y="143"/>
			<point x="211" y="-16"/>
		</contour>
		<contour>
			<point x="432" y="104" type="curve" smooth="yes"/>
			<point x="290" y="104"/>
			<point x="192" y="210"/>
			<point x="192" y="358" type="curve" smooth="yes"/>
			<point x="192" y="505"/>
			<point x="290" y="611"/>
			<point x="432" y="611" type="curve" smooth="yes"/>
			<point x="574" y="611"/>
			<point x="672" y="505"/>
			<point x="672" y="358" type="curve" smooth="yes"/>
			<point x="672" y="210"/>
			<point x="574" y="104"/>
		</contour>
		<contour>
			<point x="115" y="-29" type="line"/>
			<point x="827" y="665" type="line"/>
			<point x="748" y="744" type="line"/>
			<point x="36" y="50" type="line"/>
		</contour>
	</outline>
</glyph>
<glyph name="Thorn" format="2">
	<unicode hex="00DE"/>
	<advance width="657"/>
	<outline>
		<contour>
			<point x="196" y="461" type="line"/>
			<point x="361" y="461" type="line" smooth="yes"/>
			<point x="435" y="461"/>
			<point x="481" y="421"/>
			<point x="481" y="357" type="curve" smooth="yes"/>
			<point x="481" y="292"/>
			<point x="435" y="252"/>
			<point x="361" y="252" type="curve" smooth="yes"/>
			<point x="196" y="252" type="line"/>
			<point x="196" y="138" type="line"/>
			<point x="361" y="138" type="line" smooth="yes"/>
			<point x="514" y="138"/>
			<point x="618" y="226"/>
			<point x="618" y="357" type="curve" smooth="yes"/>
			<point x="618" y="487"/>
			<point x="514" y="575"/>
			<point x="361" y="575" type="curve" smooth="yes"/>
			<point x="196" y="575" type="line"/>
		</contour>
		<contour>
			<point x="206" y="0" type="line"/>
			<point x="206" y="715" type="line"/>
			<point x="71" y="715" type="line"/>
			<point x="71" y="0" type="line"/>
		</contour>
	</outline>
</glyph>
<glyph name="ae" format="2">
	<unicode hex="00E6"/>
	<advance width="968"/>
	<outline>
		<contour>
			<point x="852" y="157" type="line"/>
			<point x="811" y="111"/>
			<point x="761" y="88"/>
			<point x="700" y="88" type="curve" smooth="yes"/>
			<point x="601" y="88"/>
			<point x="533" y="148"/>
			<point x="533" y="254" type="curve" smooth="yes"/>
			<point x="533" y="354"/>
			<point x="589" y="416"/>
			<point x="670" y="416" type="curve" smooth="yes"/>
			<point x="748" y="416"/>
			<point x="799" y="355"/>
			<point x="799" y="264" type="curve" smooth="yes"/>
			<point x="799" y="250" type="line"/>
			<point x="928" y="250" type="line"/>
			<point x="928" y="256" type="line" smooth="yes"/>
			<point x="928" y="411"/>
			<point x="820" y="519"/>
			<point x="671" y="519" type="curve" smooth="yes"/>
			<point x="520" y="519"/>
			<point x="407" y="409"/>
			<point x="407" y="251" type="curve" smooth="yes"/>
			<point x="407" y="93"/>
			<point x="522" y="-16"/>
			<point x="693" y="-16" type="curve" smooth="yes"/>
			<point x="788" y="-16"/>
			<point x="870" y="18"/>
			<point x="922" y="76" type="curve"/>
		</contour>
		<contour>
			<point x="928" y="218" type="line"/>
			<point x="928" y="256" type="line"/>
			<point x="911" y="301" type="line"/>
			<point x="484" y="301" type="line"/>
			<point x="484" y="218" type="line"/>
		</contour>
		<contour>
			<point x="502" y="262" type="line"/>
			<point x="502" y="301" type="line" smooth="yes"/>
			<point x="502" y="437"/>
			<point x="410" y="519"/>
			<point x="276" y="519" type="curve" smooth="yes"/>
			<point x="187" y="519"/>
			<point x="108" y="487"/>
			<point x="55" y="434" type="curve"/>
			<point x="124" y="354" type="line"/>
			<point x="161" y="393"/>
			<point x="212" y="417"/>
			<point x="270" y="417" type="curve" smooth="yes"/>
			<point x="348" y="417"/>
			<point x="398" y="373"/>
			<point x="398" y="299" type="curve" smooth="yes"/>
			<point x="398" y="262" type="line"/>
		</contour>
		<contour>
			<point x="244" y="-16" type="curve" smooth="yes"/>
			<point x="395" y="-16"/>
			<point x="499" y="68"/>
			<point x="516" y="184" type="curve"/>
			<point x="431" y="201" type="line"/>
			<point x="428" y="129"/>
			<point x="347" y="83"/>
			<point x="270" y="83" type="curve" smooth="yes"/>
			<point x="213" y="83"/>
			<point x="172" y="111"/>
			<point x="172" y="153" type="curve" smooth="yes"/>
			<point x="172" y="199"/>
			<point x="217" y="219"/>
			<point x="287" y="219" type="curve" smooth="yes"/>
			<point x="443" y="219" type="line"/>
			<point x="443" y="302" type="line"/>
			<point x="277" y="302" type="line" smooth="yes"/>
			<point x="131" y="302"/>
			<point x="37" y="248"/>
			<point x="37" y="146" type="curve" smooth="yes"/>
			<point x="37" y="51"/>
			<point x="122" y="-16"/>
		</contour>
	</outline>
</glyph>
<glyph name="lslash" format="2">
	<unicode hex="0142"/>
	<advance width="374"/>
	<outline>
		<contour>
			<point x="244" y="0" type="line"/>
			<point x="244" y="720" type="line"/>
			<point x="112" y="720" type="line"/>
			<point x="112" y="0" type="line"/>
		</contour>
		<contour>
			<point x="369" y="427" type="line"/>
			<point x="325" y="509" type="line"/>
			<point x="5" y="314" type="line"/>
			<point x="50" y="232" type="line"/>
		</contour>
	</outline>
</glyph>
<glyph name="eng" format="2">
	<unicode hex="014B"/>
	<advance width="600"/>
	<outline>
		<contour>
			<point x="324" y="-194" type="line"/>
			<point x="407" y="-194" type="line" smooth="yes"/>
			<point x="502" y="-194"/>
			<point x="548" y="-148"/>
			<point x="548" y="-53" type="curve" smooth="yes"/>
			<point x="548" y="304" type="line" smooth="yes"/>
			<point x="548" y="443"/>
			<point x="474" y="519"/>
			<point x="354" y="519" type="curve" smooth="yes"/>
			<point x="278" y="519"/>
			<point x="190" y="482"/>
			<point x="173" y="347" type="curve"/>
			<point x="189" y="347" type="line"/>
			<point x="189" y="503" type="line"/>
			<point x="58" y="503" type="line"/>
			<point x="58" y="0" type="line"/>
			<point x="190" y="0" type="line"/>
			<point x="190" y="244" type="line" smooth="yes"/>
			<point x="190" y="360"/>
			<point x="251" y="409"/>
			<point x="316" y="409" type="curve" smooth="yes"/>
			<point x="377" y="409"/>
			<point x="416" y="369"/>
			<point x="416" y="291" type="curve" smooth="yes"/>
			<point x="416" y="-30" type="line" smooth="yes"/>
			<point x="416" y="-70"/>
			<point x="401" y="-86"/>
			<point x="362" y="-86" type="curve" smooth="yes"/>
			<point x="324" y="-86" type="line"/>
		</contour>
	</outline>
</glyph>
<glyph name="OE" format="2">
	<unicode hex="0152"/>
	<advance width="1220"/>
	<outline>
		<contour>
			<point x="423" y="-16" type="curve" smooth="yes"/>
			<point x="631" y="-16"/>
			<point x="776" y="143"/>
			<point x="776" y="358" type="curve" smooth="yes"/>
			<point x="776" y="572"/>
			<point x="631" y="731"/>
			<point x="423" y="731" type="curve" smooth="yes"/>
			<point x="211" y="731"/>
			<point x="50" y="572"/>
			<point x="50" y="358" type="curve" smooth="yes"/>
			<point x="50" y="143"/>
			<point x="211" y="-16"/>
		</contour>
		<contour>
			<point x="432" y="104" type="curve" smooth="yes"/>
			<point x="290" y="104"/>
			<point x="192" y="210"/>
			<point x="192" y="358" type="curve" smooth="yes"/>
			<point x="192" y="505"/>
			<point x="290" y="611"/>
			<point x="432" y="611" type="curve" smooth="yes"/>
			<point x="574" y="611"/>
			<point x="672" y="505"/>
			<point x="672" y="358" type="curve" smooth="yes"/>
			<point x="672" y="210"/>
			<point x="574" y="104"/>
		</contour>
		<contour>
			<point x="1175" y="0" type="line"/>
			<point x="1175" y="114" type="line"/>
			<point x="807" y="114" type="line"/>
			<point x="807" y="601" type="line"/>
			<point x="1175" y="601" type="line"/>
			<point x="1175" y="715" type="line"/>
			<point x="672" y="715" type="line"/>
			<point x="672" y="0" type="line"/>
		</contour>
		<contour>
			<point x="1156" y="305" type="line"/>
			<point x="1156" y="419" type="line"/>
			<point x="797" y="419" type="line"/>
			<point x="797" y="305" type="line"/>
		</contour>
	</outline>
</glyph>
<glyph name="Uhorn" format="2">
	<unicode hex="01AF"/>
	<advance width="799"/>
	<outline>
		<contour>
			<point x="369" y="-16" type="curve" smooth="yes"/>
			<point x="560" y="-16"/>
			<point x="675" y="94"/>
			<point x="675" y="282" type="curve" smooth="yes"/>
			<point x="675" y="676" type="line"/>
			<point x="637" y="630" type="line"/>
			<point x="776" y="628"/>
			<point x="847" y="690"/>
			<point x="847" y="815" type="curve" smooth="yes"/>
			<point x="847" y="877" type="line"/>
			<point x="733" y="877" type="line"/>
			<point x="733" y="807" type="line" smooth="yes"/>
			<point x="733" y="742"/>
			<point x="706" y="715"/>
			<point x="642" y="715" type="curve" smooth="yes"/>
			<point x="541" y="715" type="line"/>
			<point x="541" y="282" type="line" smooth="yes"/>
			<point x="541" y="172"/>
			<point x="477" y="103"/>
			<point x="369" y="103" type="curve" smooth="yes"/>
			<point x="262" y="103"/>
			<point x="199" y="172"/>
			<point x="199" y="282" type="curve" smooth="yes"/>
			<point x="199" y="715" type="line"/>
			<point x="64" y="715" type="line"/>
			<point x="64" y="282" type="line" smooth="yes"/>
			<point x="64" y="94"/>
			<point x="179" y="-16"/>
		</contour>
	</outline>
	<anchor name="bottom.UC" x="370" y="-50"/>
	<anchor name="ogonek.UC.round" x="410" y="-30"/>
	<anchor name="top.UC" x="369" y="750"/>
	<anchor name="topright.UC" x="552" y="750"/>
</glyph>
<glyph name="uhorn" format="2">
	<unicode hex="01B0"/>
	<advance width="671"/>
	<outline>
		<contour>
			<point x="415" y="210" type="line"/>
			<point x="406" y="141"/>
			<point x="350" y="94"/>
			<point x="284" y="94" type="curve" smooth="yes"/>
			<point x="222" y="94"/>
			<point x="185" y="131"/>
			<point x="185" y="203" type="curve" smooth="yes"/>
			<point x="185" y="503" type="line"/>
			<point x="53" y="503" type="line"/>
			<point x="53" y="189" type="line" smooth="yes"/>
			<point x="53" y="56"/>
			<point x="128" y="-16"/>
			<point x="246" y="-16" type="curve" smooth="yes"/>
			<point x="366" y="-16"/>
			<point x="445" y="68"/>
			<point x="442" y="192" type="curve"/>
		</contour>
		<contour>
			<point x="584" y="621" type="line"/>
			<point x="584" y="577" type="line" smooth="yes"/>
			<point x="584" y="526"/>
			<point x="560" y="503"/>
			<point x="506" y="503" type="curve" smooth="yes"/>
			<point x="408" y="503" type="line"/>
			<point x="408" y="124" type="line"/>
			<point x="409" y="96" type="line"/>
			<point x="409" y="0" type="line"/>
			<point x="540" y="0" type="line"/>
			<point x="540" y="467" type="line"/>
			<point x="501" y="420" type="line"/>
			<point x="629" y="421"/>
			<point x="690" y="472"/>
			<point x="690" y="581" type="curve" smooth="yes"/>
			<point x="690" y="621" type="line"/>
		</contour>
	</outline>
	<anchor name="bottom.LC" x="296" y="-50"/>
	<anchor name="top.LC" x="296" y="544"/>
</glyph>
<glyph name="gravecomb" format="2">
	<unicode hex="0300"/>
	<outline>
		<contour>
			<point x="-42" y="587" type="line"/>
			<point x="67" y="587" type="line"/>
			<point x="-47" y="761" type="line"/>
			<point x="-190" y="761" type="line"/>
		</contour>
	</outline>
	<anchor name="_top.LC" x="0" y="544"/>
</glyph>
<glyph name="Dzhe" format="2">
	<unicode hex="040F"/>
	<advance width="775"/>
	<outline>
		<contour>
			<point x="86" y="0" type="line"/>
			<point x="689" y="0" type="line"/>
			<point x="689" y="715" type="line"/>
			<point x="554" y="715" type="line"/>
			<point x="554" y="115" type="line"/>
			<point x="221" y="115" type="line"/>
			<point x="221" y="715" type="line"/>
			<point x="86" y="715" type="line"/>
		</contour>
		<contour>
			<point x="324" y="-174" type="line"/>
			<point x="451" y="-174" type="line"/>
			<point x="451" y="73" type="line"/>
			<point x="324" y="73" type="line"/>
		</contour>
	</outline>
</glyph>
<glyph name="Be" format="2">
	<unicode hex="0411"/>
	<advance width="678"/>
	<outline>
		<contour>
			<point x="86" y="0" type="line"/>
			<point x="391" y="0" type="line" smooth="yes"/>
			<point x="545" y="0"/>
			<point x="648" y="88"/>
			<point x="648" y="218" type="curve" smooth="yes"/>
			<point x="648" y="347"/>
			<point x="546" y="430"/>
			<point x="391" y="430" type="curve" smooth="yes"/>
			<point x="151" y="430" type="line"/>
			<point x="151" y="316" type="line"/>
			<point x="392" y="316" type="line" smooth="yes"/>
			<point x="466" y="316"/>
			<point x="511" y="280"/>
			<point x="511" y="218" type="curve" smooth="yes"/>
			<point x="511" y="153"/>
			<point x="466" y="114"/>
			<point x="392" y="114" type="curve" smooth="yes"/>
			<point x="209" y="114" type="line"/>
			<point x="221" y="102" type="line"/>
			<point x="221" y="715" type="line"/>
			<point x="86" y="715" type="line"/>
		</contour>
		<contour>
			<point x="155" y="599" type="line"/>
			<point x="592" y="599" type="line"/>
			<point x="592" y="715" type="line"/>
			<point x="155" y="715" type="line"/>
		</contour>
	</outline>
</glyph>
<glyph name="Ghe" format="2">
	<unicode hex="0413"/>
	<advance width="572"/>
	<outline>
		<contour>
			<point x="86" y="0" type="line"/>
			<point x="221" y="0" type="line"/>
			<point x="221" y="683" type="line"/>
			<point x="148" y="599" type="line"/>
			<point x="559" y="599" type="line"/>
			<point x="559" y="715" type="line"/>
			<point x="86" y="715" type="line"/>
		</contour>
	</outline>
	<anchor name="top.UC" x="327" y="750"/>
</glyph>
<glyph name="Ef" format="2">
	<unicode hex="0424"/>
	<advance width="895"/>
	<outline>
		<contour>
			<point x="448" y="71" type="curve" smooth="yes"/>
			<point x="709" y="71"/>
			<point x="845" y="170"/>
			<point x="845" y="358" type="curve" smooth="yes"/>
			<point x="845" y="545"/>
			<point x="709" y="644"/>
			<point x="448" y="644" type="curve" smooth="yes"/>
			<point x="187" y="644"/>
			<point x="50" y="545"/>
			<point x="50" y="358" type="curve" smooth="yes"/>
			<point x="50" y="170"/>
			<point x="186" y="71"/>
		</contour>
		<contour>
			<point x="448" y="183" type="curve" smooth="yes"/>
			<point x="266" y="183"/>
			<point x="184" y="237"/>
			<point x="184" y="358" type="curve" smooth="yes"/>
			<point x="184" y="479"/>
			<point x="266" y="532"/>
			<point x="448" y="532" type="curve" smooth="yes"/>
			<point x="630" y="532"/>
			<point x="712" y="479"/>
			<point x="712" y="358" type="curve" smooth="yes"/>
			<point x="712" y="236"/>
			<point x="630" y="183"/>
		</contour>
		<contour>
			<point x="380" y="-33" type="line"/>
			<point x="515" y="-33" type="line"/>
			<point x="515" y="113" type="line"/>
			<point x="511" y="157" type="line"/>
			<point x="511" y="564" type="line"/>
			<point x="515" y="603" type="line"/>
			<point x="515" y="748" type="line"/>
			<point x="380" y="748" type="line"/>
			<point x="380" y="603" type="line"/>
			<point x="384" y="564" type="line"/>
			<point x="384" y="157" type="line"/>
			<point x="380" y="113" type="line"/>
		</contour>
	</outline>
</glyph>
<glyph name="Soft" format="2">
	<unicode hex="042C"/>
	<advance width="682"/>
	<outline>
		<contour>
			<point x="86" y="0" type="line"/>
			<point x="391" y="0" type="line" smooth="yes"/>
			<point x="545" y="0"/>
			<point x="648" y="91"/>
			<point x="648" y="224" type="curve" smooth="yes"/>
			<point x="648" y="357"/>
			<point x="546" y="444"/>
			<point x="391" y="444" type="curve" smooth="yes"/>
			<point x="151" y="444" type="line"/>
			<point x="151" y="329" type="line"/>
			<point x="392" y="329" type="line" smooth="yes"/>
			<point x="466" y="329"/>
			<point x="511" y="289"/>
			<point x="511" y="224" type="curve" smooth="yes"/>
			<point x="511" y="156"/>
			<point x="466" y="115"/>
			<point x="392" y="115" type="curve" smooth="yes"/>
			<point x="209" y="115" type="line"/>
			<point x="221" y="101" type="line"/>
			<point x="221" y="715" type="line"/>
			<point x="86" y="715" type="line"/>
		</contour>
	</outline>
</glyph>
<glyph name="be" format="2">
	<unicode hex="0431"/>
	<advance width="614"/>
	<outline>
		<contour>
			<point x="312" y="-16" type="curve" smooth="yes"/>
			<point x="470" y="-16"/>
			<point x="575" y="87"/>
			<point x="575" y="243" type="curve" smooth="yes"/>
			<point x="575" y="380"/>
			<point x="489" y="476"/>
			<point x="347" y="476" type="curve" smooth="yes"/>
			<point x="245" y="476"/>
			<point x="162" y="419"/>
			<point x="140" y="320" type="curve"/>
			<point x="159" y="351" type="line"/>
			<point x="166" y="509"/>
			<point x="202" y="567"/>
			<point x="313" y="582" type="curve" smooth="yes"/>
			<point x="526" y="612" type="line"/>
			<point x="512" y="720" type="line"/>
			<point x="294" y="692" type="line" smooth="yes"/>
			<point x="117" y="669"/>
			<point x="40" y="562"/>
			<point x="40" y="338" type="curve" smooth="yes"/>
			<point x="40" y="112"/>
			<point x="138" y="-16"/>
		</contour>
		<contour>
			<point x="306" y="94" type="curve" smooth="yes"/>
			<point x="214" y="94"/>
			<point x="173" y="159"/>
			<point x="176" y="301" type="curve"/>
			<point x="171" y="249" type="line"/>
			<point x="188" y="323"/>
			<point x="242" y="369"/>
			<point x="312" y="369" type="curve" smooth="yes"/>
			<point x="393" y="369"/>
			<point x="439" y="320"/>
			<point x="439" y="234" type="curve" smooth="yes"/>
			<point x="439" y="147"/>
			<point x="390" y="94"/>
		</contour>
	</outline>
</glyph>
<glyph name="ve" format="2">
	<unicode hex="0432"/>
	<advance width="563"/>
	<outline>
		<contour>
			<point x="69" y="0" type="line"/>
			<point x="338" y="0" type="line" smooth="yes"/>
			<point x="449" y="0"/>
			<point x="533" y="57"/>
			<point x="533" y="143" type="curve" smooth="yes"/>
			<point x="533" y="204"/>
			<point x="488" y="249"/>
			<point x="424" y="267" type="curve"/>
			<point x="425" y="258" type="line"/>
			<point x="477" y="278"/>
			<point x="509" y="316"/>
			<point x="509" y="368" type="curve" smooth="yes"/>
			<point x="509" y="450"/>
			<point x="440" y="503"/>
			<point x="328" y="503" type="curve" smooth="yes"/>
			<point x="69" y="503" type="line"/>
		</contour>
		<contour>
			<point x="188" y="34" type="line"/>
			<point x="188" y="472" type="line"/>
			<point x="118" y="408" type="line"/>
			<point x="307" y="408" type="line" smooth="yes"/>
			<point x="359" y="408"/>
			<point x="380" y="392"/>
			<point x="380" y="356" type="curve" smooth="yes"/>
			<point x="380" y="320"/>
			<point x="360" y="302"/>
			<point x="307" y="302" type="curve" smooth="yes"/>
			<point x="134" y="302" type="line"/>
			<point x="134" y="215" type="line"/>
			<point x="318" y="215" type="line" smooth="yes"/>
			<point x="375" y="215"/>
			<point x="404" y="195"/>
			<point x="404" y="155" type="curve" smooth="yes"/>
			<point x="404" y="115"/>
			<point x="375" y="95"/>
			<point x="318" y="95" type="curve" smooth="yes"/>
			<point x="123" y="95" type="line"/>
		</contour>
	</outline>
</glyph>
<glyph name="ef" format="2">
	<unicode hex="0444"/>
	<advance width="809"/>
	<outline>
		<contour>
			<point x="379" y="-16" type="curve" smooth="yes"/>
			<point x="430" y="-16" type="line" smooth="yes"/>
			<point x="638" y="-16"/>
			<point x="769" y="87"/>
			<point x="769" y="252" type="curve" smooth="yes"/>
			<point x="769" y="416"/>
			<point x="638" y="519"/>
			<point x="430" y="519" type="curve" smooth="yes"/>
			<point x="379" y="519" type="line" smooth="yes"/>
			<point x="171" y="519"/>
			<point x="40" y="416"/>
			<point x="40" y="252" type="curve" smooth="yes"/>
			<point x="40" y="87"/>
			<point x="171" y="-16"/>
		</contour>
		<contour>
			<point x="379" y="93" type="line"/>
			<point x="242" y="93"/>
			<point x="169" y="149"/>
			<point x="169" y="252" type="curve" smooth="yes"/>
			<point x="169" y="355"/>
			<point x="242" y="410"/>
			<point x="379" y="410" type="curve" smooth="yes"/>
			<point x="430" y="410" type="line" smooth="yes"/>
			<point x="566" y="410"/>
			<point x="640" y="355"/>
			<point x="640" y="252" type="curve" smooth="yes"/>
			<point x="640" y="149"/>
			<point x="567" y="93"/>
			<point x="430" y="93" type="curve" smooth="yes"/>
		</contour>
		<contour>
			<point x="340" y="-204" type="line"/>
			<point x="470" y="-204" type="line"/>
			<point x="470" y="37" type="line"/>
			<point x="466" y="53" type="line"/>
			<point x="466" y="440" type="line"/>
			<point x="470" y="458" type="line"/>
			<point x="470" y="720" type="line"/>
			<point x="340" y="720" type="line"/>
			<point x="340" y="458" type="line"/>
			<point x="344" y="440" type="line"/>
			<point x="344" y="53" type="line"/>
			<point x="340" y="37" type="line"/>
		</contour>
	</outline>
</glyph>
<glyph name="sha" format="2">
	<unicode hex="0448"/>
	<advance width="869"/>
	<outline>
		<contour>
			<point x="69" y="0" type="line"/>
			<point x="800" y="0" type="line"/>
			<point x="800" y="503" type="line"/>
			<point x="671" y="503" type="line"/>
			<point x="671" y="22" type="line"/>
			<point x="746" y="107" type="line"/>
			<point x="466" y="107" type="line"/>
			<point x="499" y="22" type="line"/>
			<point x="499" y="503" type="line"/>
			<point x="370" y="503" type="line"/>
			<point x="370" y="22" type="line"/>
			<point x="424" y="107" type="line"/>
			<point x="147" y="107" type="line"/>
			<point x="198" y="22" type="line"/>
			<point x="198" y="503" type="line"/>
			<point x="69" y="503" type="line"/>
		</contour>
	</outline>
</glyph>
<glyph name="hard" format="2">
	<unicode hex="044A"/>
	<advance width="604"/>
	<outline>
		<contour>
			<point x="131" y="0" type="line"/>
			<point x="383" y="0" type="line" smooth="yes"/>
			<point x="503" y="0"/>
			<point x="585" y="69"/>
			<point x="585" y="177" type="curve" smooth="yes"/>
			<point x="585" y="276"/>
			<point x="506" y="345"/>
			<point x="383" y="345" type="curve" smooth="yes"/>
			<point x="195" y="345" type="line"/>
			<point x="195" y="241" type="line"/>
			<point x="370" y="241" type="line" smooth="yes"/>
			<point x="422" y="241"/>
			<point x="451" y="217"/>
			<point x="451" y="173" type="curve" smooth="yes"/>
			<point x="451" y="128"/>
			<point x="422" y="104"/>
			<point x="370" y="104" type="curve" smooth="yes"/>
			<point x="173" y="104" type="line"/>
			<point x="258" y="21" type="line"/>
			<point x="258" y="503" type="line"/>
			<point x="26" y="503" type="line"/>
			<point x="26" y="399" type="line"/>
			<point x="192" y="399" type="line"/>
			<point x="131" y="475" type="line"/>
		</contour>
	</outline>
</glyph>
<glyph name="lje" format="2">
	<unicode hex="0459"/>
	<advance width="859"/>
	<outline>
		<contour>
			<point x="18" y="0" type="line"/>
			<point x="76" y="0" type="line" smooth="yes"/>
			<point x="174" y="0"/>
			<point x="219" y="33"/>
			<point x="229" y="134" type="curve"/>
			<point x="255" y="408" type="line"/>
			<point x="242" y="396" type="line"/>
			<point x="405" y="396" type="line"/>
			<point x="393" y="408" type="line"/>
			<point x="393" y="0" type="line"/>
			<point x="639" y="0" type="line" smooth="yes"/>
			<point x="759" y="0"/>
			<point x="841" y="69"/>
			<point x="841" y="177" type="curve" smooth="yes"/>
			<point x="841" y="277"/>
			<point x="762" y="346"/>
			<point x="639" y="346" type="curve" smooth="yes"/>
			<point x="479" y="346" type="line"/>
			<point x="479" y="241" type="line"/>
			<point x="626" y="241" type="line" smooth="yes"/>
			<point x="678" y="241"/>
			<point x="706" y="217"/>
			<point x="706" y="173" type="curve" smooth="yes"/>
			<point x="706" y="128"/>
			<point x="678" y="104"/>
			<point x="626" y="104" type="curve" smooth="yes"/>
			<point x="513" y="104" type="line"/>
			<point x="525" y="92" type="line"/>
			<point x="525" y="503" type="line"/>
			<point x="140" y="503" type="line"/>
			<point x="108" y="161" type="line" smooth="yes"/>
			<point x="104" y="123"/>
			<point x="89" y="108"/>
			<point x="52" y="108" type="curve" smooth="yes"/>
			<point x="18" y="108" type="line"/>
		</contour>
	</outline>
</glyph>
<glyph name="dzhe" format="2">
	<unicode hex="045F"/>
	<advance width="595"/>
	<outline>
		<contour>
			<point x="58" y="0" type="line"/>
			<point x="526" y="0" type="line"/>
			<point x="526" y="503" type="line"/>
			<point x="394" y="503" type="line"/>
			<point x="394" y="107" type="line"/>
			<point x="190" y="107" type="line"/>
			<point x="190" y="503" type="line"/>
			<point x="58" y="503" type="line"/>
		</contour>
		<contour>
			<point x="230" y="-137" type="line"/>
			<point x="354" y="-137" type="line"/>
			<point x="354" y="87" type="line"/>
			<point x="230" y="87" type="line"/>
		</contour>
	</outline>
</glyph>
<glyph name="Yat" format="2">
	<unicode hex="0462"/>
	<advance width="734"/>
	<outline>
		<contour>
			<point x="138" y="0" type="line"/>
			<point x="443" y="0" type="line" smooth="yes"/>
			<point x="597" y="0"/>
			<point x="700" y="89"/>
			<point x="700" y="219" type="curve" smooth="yes"/>
			<point x="700" y="350"/>
			<point x="598" y="434"/>
			<point x="443" y="434" type="curve" smooth="yes"/>
			<point x="203" y="434" type="line"/>
			<point x="203" y="320" type="line"/>
			<point x="444" y="320" type="line" smooth="yes"/>
			<point x="518" y="320"/>
			<point x="563" y="282"/>
			<point x="563" y="219" type="curve" smooth="yes"/>
			<point x="563" y="154"/>
			<point x="518" y="115"/>
			<point x="444" y="115" type="curve" smooth="yes"/>
			<point x="261" y="115" type="line"/>
			<point x="273" y="101" type="line"/>
			<point x="273" y="715" type="line"/>
			<point x="138" y="715" type="line"/>
		</contour>
		<contour>
			<point x="19" y="523" type="line"/>
			<point x="524" y="523" type="line"/>
			<point x="524" y="638" type="line"/>
			<point x="19" y="638" type="line"/>
		</contour>
	</outline>
</glyph>
<glyph name="Gheup" format="2">
	<unicode hex="0490"/>
	<advance width="582"/>
	<outline>
		<contour>
			<point x="86" y="0" type="line"/>
			<point x="221" y="0" type="line"/>
			<point x="221" y="683" type="line"/>
			<point x="148" y="599" type="line"/>
			<point x="559" y="599" type="line"/>
			<point x="559" y="879" type="line"/>
			<point x="432" y="879" type="line"/>
			<point x="432" y="650" type="line"/>
			<point x="506" y="715" type="line"/>
			<point x="86" y="715" type="line"/>
		</contour>
	</outline>
</glyph>
<glyph name="dagger" format="2">
	<unicode hex="2020"/>
	<advance width="492"/>
	<outline>
		<contour>
			<point x="311" y="-129" type="line"/>
			<point x="311" y="736" type="line"/>
			<point x="182" y="736" type="line"/>
			<point x="182" y="-129" type="line"/>
		</contour>
		<contour>
			<point x="450" y="396" type="line"/>
			<point x="450" y="502" type="line"/>
			<point x="42" y="502" type="line"/>
			<point x="42" y="396" type="line"/>
		</contour>
	</outline>
</glyph>
<glyph name="trademark" format="2">
	<unicode hex="2122"/>
	<advance width="917"/>
	<outline>
		<contour>
			<point x="248" y="307" type="line"/>
			<point x="248" y="637" type="line"/>
			<point x="149" y="637" type="line"/>
			<point x="149" y="307" type="line"/>
		</contour>
		<contour>
			<point x="371" y="630" type="line"/>
			<point x="371" y="715" type="line"/>
			<point x="26" y="715" type="line"/>
			<point x="26" y="630" type="line"/>
		</contour>
		<contour>
			<point x="691" y="358" type="line"/>
			<point x="848" y="682" type="line"/>
			<point x="793" y="684" type="line"/>
			<point x="793" y="307" type="line"/>
			<point x="891" y="307" type="line"/>
			<point x="891" y="715" type="line"/>
			<point x="777" y="715" type="line"/>
			<point x="638" y="428" type="line"/>
			<point x="672" y="428" type="line"/>
			<point x="535" y="715" type="line"/>
			<point x="417" y="715" type="line"/>
			<point x="417" y="307" type="line"/>
			<point x="513" y="307" type="line"/>
			<point x="513" y="684" type="line"/>
			<point x="462" y="682" type="line"/>
			<point x="618" y="358" type="line"/>
		</contour>
	</outline>
</glyph>
<glyph name="El.loclBGR" format="2">
	<advance width="765"/>
	<outline>
		<contour>
			<point x="29" y="0" type="line"/>
			<point x="170" y="0" type="line"/>
			<point x="380" y="566" type="line"/>
			<point x="590" y="0" type="line"/>
			<point x="736" y="0" type="line"/>
			<point x="457" y="715" type="line"/>
			<point x="308" y="715" type="line"/>
		</contour>
	</outline>
	<anchor name="top.UC" x="382" y="750"/>
</glyph>
<glyph name="acutecomb.cap" format="2">
	<outline>
		<contour>
			<point x="219" y="933" type="line"/>
			<point x="60" y="933" type="line"/>
			<point x="-74" y="789" type="line"/>
			<point x="52" y="789" type="line"/>
		</contour>
	</outline>
	<anchor name="_top.UC" x="0" y="750"/>
</glyph>
<glyph name="be.loclMKDSRB" format="2">
	<advance width="628"/>
	<outline>
		<contour>
			<point x="316" y="-16" type="curve" smooth="yes"/>
			<point x="478" y="-16"/>
			<point x="585" y="83"/>
			<point x="585" y="234" type="curve" smooth="yes"/>
			<point x="585" y="342"/>
			<point x="526" y="421"/>
			<point x="408" y="473" type="curve" smooth="yes"/>
			<point x="275" y="533" type="line" smooth="yes"/>
			<point x="250" y="544"/>
			<point x="241" y="553"/>
			<point x="241" y="565" type="curve" smooth="yes"/>
			<point x="241" y="584"/>
			<point x="254" y="591"/>
			<point x="290" y="594" type="curve" smooth="yes"/>
			<point x="533" y="612" type="line"/>
			<point x="525" y="720" type="line"/>
			<point x="275" y="704" type="line" smooth="yes"/>
			<point x="161" y="696"/>
			<point x="106" y="653"/>
			<point x="106" y="571" type="curve" smooth="yes"/>
			<point x="106" y="510"/>
			<point x="143" y="468"/>
			<point x="230" y="428" type="curve" smooth="yes"/>
			<point x="339" y="380" type="line" smooth="yes"/>
			<point x="410" y="348"/>
			<point x="449" y="295"/>
			<point x="449" y="231" type="curve" smooth="yes"/>
			<point x="449" y="150"/>
			<point x="396" y="94"/>
			<point x="317" y="94" type="curve" smooth="yes"/>
			<point x="233" y="94"/>
			<point x="179" y="145"/>
			<point x="179" y="224" type="curve" smooth="yes"/>
			<point x="179" y="305"/>
			<point x="244" y="377"/>
			<point x="340" y="401" type="curve"/>
			<point x="282" y="466" type="line"/>
			<point x="130" y="437"/>
			<point x="43" y="345"/>
			<point x="43" y="216" type="curve" smooth="yes"/>
			<point x="43" y="74"/>
			<point x="149" y="-16"/>
		</contour>
	</outline>
</glyph>
<glyph name="brevehookabovecomb" format="2">
	<outline>
		<contour>
			<point x="0" y="585" type="curve" smooth="yes"/>
			<point x="88" y="585"/>
			<point x="161" y="645"/>
			<point x="171" y="747" type="curve"/>
			<point x="72" y="747" type="line"/>
			<point x="65" y="695"/>
			<point x="36" y="673"/>
			<point x="0" y="673" type="curve" smooth="yes"/>
			<point x="-36" y="673"/>
			<point x="-65" y="695"/>
			<point x="-72" y="747" type="curve"/>
			<point x="-171" y="747" type="line"/>
			<point x="-161" y="645"/>
			<point x="-88" y="585"/>
		</contour>
		<contour>
			<point x="-13" y="733" type="line"/>
			<point x="62" y="760"/>
			<point x="102" y="802"/>
			<point x="102" y="852" type="curve" smooth="yes"/>
			<point x="102" y="907"/>
			<point x="55" y="947"/>
			<point x="-8" y="947" type="curve" smooth="yes"/>
			<point x="-49" y="947"/>
			<point x="-85" y="933"/>
			<point x="-115" y="904" type="curve"/>
			<point x="-74" y="854" type="line"/>
			<point x="-56" y="868"/>
			<point x="-40" y="874"/>
			<point x="-21" y="874" type="curve" smooth="yes"/>
			<point x="2" y="874"/>
			<point x="16" y="863"/>
			<point x="16" y="844" type="curve" smooth="yes"/>
			<point x="16" y="824"/>
			<point x="-2" y="806"/>
			<point x="-43" y="787" type="curve"/>
		</contour>
	</outline>
	<anchor name="_top.LC" x="0" y="544"/>
</glyph>
<glyph name="caroncomb.cap" format="2">
	<outline>
		<contour>
			<point x="-203" y="943" type="line"/>
			<point x="-70" y="799" type="line"/>
			<point x="70" y="799" type="line"/>
			<point x="203" y="943" type="line"/>
			<point x="79" y="943" type="line"/>
			<point x="-56" y="815" type="line"/>
			<point x="58" y="815" type="line"/>
			<point x="-78" y="943" type="line"/>
		</contour>
	</outline>
	<anchor name="_top.UC" x="0" y="750"/>
</glyph>
<glyph name="cedillacomb.cap" format="2">
	<outline>
		<contour>
			<point x="-133" y="-222" type="line"/>
			<point x="-101" y="-248"/>
			<point x="-64" y="-261"/>
			<point x="-21" y="-261" type="curve" smooth="yes"/>
			<point x="70" y="-261"/>
			<point x="124" y="-210"/>
			<point x="124" y="-145" type="curve" smooth="yes"/>
			<point x="124" y="-80"/>
			<point x="55" y="-39"/>
			<point x="-28" y="-42" type="curve"/>
			<point x="9" y="-88" type="line"/>
			<point x="36" y="10" type="line"/>
			<point x="-37" y="10" type="line"/>
			<point x="-73" y="-117" type="line"/>
			<point x="-56" y="-112"/>
			<point x="-39" y="-111"/>
			<point x="-27" y="-111" type="curve" smooth="yes"/>
			<point x="12" y="-111"/>
			<point x="32" y="-126"/>
			<point x="32" y="-148" type="curve" smooth="yes"/>
			<point x="32" y="-170"/>
			<point x="12" y="-184"/>
			<point x="-18" y="-184" type="curve" smooth="yes"/>
			<point x="-46" y="-184"/>
			<point x="-73" y="-173"/>
			<point x="-91" y="-156" type="curve"/>
		</contour>
	</outline>
	<anchor name="_bottom.UC" x="0" y="-50"/>
</glyph>
<glyph name="circumflexcomb.cap" format="2">
	<outline>
		<contour>
			<point x="203" y="799" type="line"/>
			<point x="70" y="943" type="line"/>
			<point x="-70" y="943" type="line"/>
			<point x="-203" y="799" type="line"/>
			<point x="-79" y="799" type="line"/>
			<point x="56" y="927" type="line"/>
			<point x="-58" y="927" type="line"/>
			<point x="78" y="799" type="line"/>
		</contour>
	</outline>
	<anchor name="_top.UC" x="0" y="750"/>
	<anchor name="top.UC" x="200" y="859"/>
</glyph>
<glyph name="dotaccentcomb.cap" format="2">
	<outline>
		<contour>
			<point x="0" y="789" type="curve" smooth="yes"/>
			<point x="45" y="789"/>
			<point x="78" y="822"/>
			<point x="78" y="865" type="curve" smooth="yes"/>
			<point x="78" y="909"/>
			<point x="45" y="942"/>
			<point x="0" y="942" type="curve" smooth="yes"/>
			<point x="-45" y="942"/>
			<point x="-78" y="909"/>
			<point x="-78" y="865" type="curve" smooth="yes"/>
			<point x="-78" y="822"/>
			<point x="-45" y="789"/>
		</contour>
	</outline>
	<anchor name="_top.UC" x="0" y="750"/>
</glyph>
<glyph name="dotbelowcomb.cap" format="2">
	<outline>
		<contour>
			<point x="0" y="-242" type="curve" smooth="yes"/>
			<point x="45" y="-242"/>
			<point x="78" y="-209"/>
			<point x="78" y="-166" type="curve" smooth="yes"/>
			<point x="78" y="-122"/>
			<point x="45" y="-89"/>
			<point x="0" y="-89" type="curve" smooth="yes"/>
			<point x="-45" y="-89"/>
			<point x="-78" y="-122"/>
			<point x="-78" y="-166" type="curve" smooth="yes"/>
			<point x="-78" y="-209"/>
			<point x="-45" y="-242"/>
		</contour>
	</outline>
	<anchor name="_bottom.UC" x="0" y="-50"/>
</glyph>
<glyph name="exclamdown.case" format="2">
	<advance width="262"/>
	<outline>
		<contour>
			<point x="48" y="634" type="curve" smooth="yes"/>
			<point x="48" y="589"/>
			<point x="85" y="553"/>
			<point x="131" y="553" type="curve" smooth="yes"/>
			<point x="177" y="553"/>
			<point x="214" y="589"/>
			<point x="214" y="634" type="curve" smooth="yes"/>
			<point x="214" y="680"/>
			<point x="177" y="715"/>
			<point x="131" y="715" type="curve" smooth="yes"/>
			<point x="85" y="715"/>
			<point x="48" y="680"/>
		</contour>
		<contour>
			<point x="98" y="481" type="line"/>
			<point x="91" y="420"/>
			<point x="56" y="73"/>
			<point x="56" y="45" type="curve" smooth="yes"/>
			<point x="56" y="4"/>
			<point x="89" y="-26"/>
			<point x="131" y="-26" type="curve" smooth="yes"/>
			<point x="173" y="-26"/>
			<point x="206" y="4"/>
			<point x="206" y="45" type="curve" smooth="yes"/>
			<point x="206" y="73"/>
			<point x="171" y="420"/>
			<point x="164" y="481" type="curve"/>
		</contour>
	</outline>
</glyph>
<glyph name="hard.loclBGR" format="2">
	<advance width="612"/>
	<outline>
		<contour>
			<point x="364" y="-16" type="curve" smooth="yes"/>
			<point x="497" y="-16"/>
			<point x="590" y="65"/>
			<point x="590" y="182" type="curve" smooth="yes"/>
			<point x="590" y="291"/>
			<point x="506" y="369"/>
			<point x="390" y="369" type="curve" smooth="yes"/>
			<point x="331" y="369"/>
			<point x="278" y="343"/>
			<point x="251" y="304" type="curve"/>
			<point x="258" y="300" type="line"/>
			<point x="258" y="503" type="line"/>
			<point x="26" y="503" type="line"/>
			<point x="26" y="399" type="line"/>
			<point x="143" y="399" type="line"/>
			<point x="131" y="411" type="line"/>
			<point x="131" y="194" type="line" smooth="yes"/>
			<point x="131" y="61"/>
			<point x="217" y="-16"/>
		</contour>
		<contour>
			<point x="361" y="91" type="curve" smooth="yes"/>
			<point x="299" y="91"/>
			<point x="258" y="125"/>
			<point x="258" y="177" type="curve" smooth="yes"/>
			<point x="258" y="228"/>
			<point x="299" y="262"/>
			<point x="361" y="262" type="curve" smooth="yes"/>
			<point x="418" y="262"/>
			<point x="458" y="227"/>
			<point x="458" y="177" type="curve" smooth="yes"/>
			<point x="458" y="125"/>
			<point x="419" y="91"/>
		</contour>
	</outline>
</glyph>
<glyph name="horncomb.cap" format="2">
	<outline>
		<contour>
			<point x="-1" y="629" type="line"/>
			<point x="86" y="629" type="line" smooth="yes"/>
			<point x="224" y="629"/>
			<point x="295" y="690"/>
			<point x="295" y="815" type="curve" smooth="yes"/>
			<point x="295" y="864" type="line"/>
			<point x="182" y="864" type="line"/>
			<point x="182" y="807" type="line" smooth="yes"/>
			<point x="182" y="742"/>
			<point x="154" y="715"/>
			<point x="90" y="715" type="curve" smooth="yes"/>
			<point x="-1" y="715" type="line"/>
		</contour>
	</outline>
	<anchor name="_topright.UC" x="0" y="750"/>
</glyph>
<glyph name="hungarumlautcomb.cap" format="2">
	<outline>
		<contour>
			<point x="108" y="933" type="line"/>
			<point x="-44" y="933" type="line"/>
			<point x="-164" y="789" type="line"/>
			<point x="-38" y="789" type="line"/>
		</contour>
		<contour>
			<point x="318" y="933" type="line"/>
			<point x="166" y="933" type="line"/>
			<point x="26" y="789" type="line"/>
			<point x="152" y="789" type="line"/>
		</contour>
	</outline>
	<anchor name="_top.UC" x="0" y="750"/>
</glyph>
<glyph name="macroncomb.cap" format="2">
	<outline>
		<contour>
			<point x="162" y="808" type="line"/>
			<point x="162" y="902" type="line"/>
			<point x="-162" y="902" type="line"/>
			<point x="-162" y="808" type="line"/>
		</contour>
	</outline>
	<anchor name="_top.UC" x="0" y="750"/>
</glyph>
<glyph name="nine.dnom" format="2">
	<advance width="409"/>
	<outline>
		<contour>
			<point x="204" y="417" type="curve" smooth="yes"/>
			<point x="106" y="417"/>
			<point x="33" y="357"/>
			<point x="33" y="272" type="curve" smooth="yes"/>
			<point x="33" y="192"/>
			<point x="98" y="135"/>
			<point x="181" y="135" type="curve" smooth="yes"/>
			<point x="226" y="135"/>
			<point x="254" y="154"/>
			<point x="272" y="185" type="curve"/>
			<point x="262" y="188" type="line"/>
			<point x="240" y="136"/>
			<point x="182" y="81"/>
			<point x="71" y="0" type="curve"/>
			<point x="199" y="0" type="line"/>
			<point x="304" y="82"/>
			<point x="374" y="164"/>
			<point x="374" y="261" type="curve" smooth="yes"/>
			<point x="374" y="352"/>
			<point x="305" y="417"/>
		</contour>
		<contour>
			<point x="203" y="338" type="curve" smooth="yes"/>
			<point x="247" y="338"/>
			<point x="278" y="310"/>
			<point x="278" y="274" type="curve" smooth="yes"/>
			<point x="278" y="237"/>
			<point x="247" y="210"/>
			<point x="203" y="210" type="curve" smooth="yes"/>
			<point x="160" y="210"/>
			<point x="128" y="237"/>
			<point x="128" y="274" type="curve" smooth="yes"/>
			<point x="128" y="310"/>
			<point x="160" y="338"/>
		</contour>
	</outline>
</glyph>
<glyph name="one.dnom" format="2">
	<advance width="365"/>
	<outline>
		<contour>
			<point x="192" y="411" type="line"/>
			<point x="68" y="337" type="line"/>
			<point x="68" y="244" type="line"/>
			<point x="172" y="310" type="line"/>
			<point x="172" y="0" type="line"/>
			<point x="273" y="0" type="line"/>
			<point x="273" y="411" type="line"/>
		</contour>
	</outline>
</glyph>
<glyph name="questiondown.case" format="2">
	<advance width="576"/>
	<outline>
		<contour>
			<point x="255" y="481" type="line"/>
			<point x="255" y="431"/>
			<point x="237" y="401"/>
			<point x="172" y="363" type="curve" smooth="yes"/>
			<point x="88" y="313"/>
			<point x="46" y="256"/>
			<point x="46" y="182" type="curve" smooth="yes"/>
			<point x="46" y="64"/>
			<point x="148" y="-26"/>
			<point x="286" y="-26" type="curve" smooth="yes"/>
			<point x="386" y="-26"/>
			<point x="479" y="21"/>
			<point x="547" y="106" type="curve"/>
			<point x="460" y="192" type="line"/>
			<point x="411" y="119"/>
			<point x="350" y="86"/>
			<point x="290" y="86" type="curve" smooth="yes"/>
			<point x="223" y="86"/>
			<point x="178" y="127"/>
			<point x="178" y="182" type="curve" smooth="yes"/>
			<point x="178" y="218"/>
			<point x="197" y="245"/>
			<point x="239" y="275" type="curve" smooth="yes"/>
			<point x="335" y="342"/>
			<point x="365" y="393"/>
			<point x="357" y="481" type="curve"/>
		</contour>
		<contour>
			<point x="222" y="634" type="curve" smooth="yes"/>
			<point x="222" y="589"/>
			<point x="259" y="553"/>
			<point x="305" y="553" type="curve" smooth="yes"/>
			<point x="351" y="553"/>
			<point x="388" y="589"/>
			<point x="388" y="634" type="curve" smooth="yes"/>
			<point x="388" y="680"/>
			<point x="351" y="715"/>
			<point x="305" y="715" type="curve" smooth="yes"/>
			<point x="259" y="715"/>
			<point x="222" y="680"/>
		</contour>
	</outline>
</glyph>
<glyph name="shcha.loclBGR" format="2">
	<advance width="963"/>
	<outline>
		<contour>
			<point x="246" y="-16" type="curve" smooth="yes"/>
			<point x="358" y="-16"/>
			<point x="425" y="56"/>
			<point x="442" y="192" type="curve"/>
			<point x="397" y="210" type="line"/>
			<point x="388" y="142"/>
			<point x="339" y="94"/>
			<point x="276" y="94" type="curve" smooth="yes"/>
			<point x="217" y="94"/>
			<point x="185" y="132"/>
			<point x="185" y="203" type="curve" smooth="yes"/>
			<point x="185" y="503" type="line"/>
			<point x="53" y="503" type="line"/>
			<point x="53" y="189" type="line" smooth="yes"/>
			<point x="53" y="59"/>
			<point x="124" y="-16"/>
		</contour>
		<contour>
			<point x="573" y="-16" type="curve" smooth="yes"/>
			<point x="687" y="-16"/>
			<point x="761" y="66"/>
			<point x="757" y="192" type="curve"/>
			<point x="734" y="210" type="line"/>
			<point x="726" y="142"/>
			<point x="676" y="94"/>
			<point x="613" y="94" type="curve" smooth="yes"/>
			<point x="555" y="94"/>
			<point x="522" y="133"/>
			<point x="522" y="203" type="curve" smooth="yes"/>
			<point x="522" y="503" type="line"/>
			<point x="390" y="503" type="line"/>
			<point x="390" y="189" type="line" smooth="yes"/>
			<point x="390" y="59"/>
			<point x="457" y="-16"/>
		</contour>
		<contour>
			<point x="815" y="-137" type="line"/>
			<point x="939" y="-137" type="line"/>
			<point x="939" y="107" type="line"/>
			<point x="914" y="107" type="line"/>
			<point x="874" y="107"/>
			<point x="860" y="123"/>
			<point x="860" y="162" type="curve" smooth="yes"/>
			<point x="860" y="503" type="line"/>
			<point x="728" y="503" type="line"/>
			<point x="728" y="138" type="line"/>
			<point x="729" y="114" type="line" smooth="yes"/>
			<point x="734" y="44"/>
			<point x="781" y="0"/>
			<point x="846" y="0" type="curve"/>
			<point x="815" y="40" type="line"/>
		</contour>
	</outline>
</glyph>
<glyph name="tildecomb.cap" format="2">
	<outline>
		<contour>
			<point x="113" y="929" type="line"/>
			<point x="107" y="883"/>
			<point x="91" y="868"/>
			<point x="74" y="868" type="curve" smooth="yes"/>
			<point x="64" y="868"/>
			<point x="55" y="872"/>
			<point x="27" y="891" type="curve" smooth="yes"/>
			<point x="0" y="909"/>
			<point x="-34" y="930"/>
			<point x="-73" y="930" type="curve" smooth="yes"/>
			<point x="-134" y="930"/>
			<point x="-186" y="894"/>
			<point x="-199" y="813" type="curve"/>
			<point x="-114" y="781" type="line"/>
			<point x="-108" y="827"/>
			<point x="-92" y="842"/>
			<point x="-75" y="842" type="curve" smooth="yes"/>
			<point x="-65" y="842"/>
			<point x="-56" y="838"/>
			<point x="-28" y="819" type="curve" smooth="yes"/>
			<point x="-1" y="801"/>
			<point x="33" y="780"/>
			<point x="72" y="780" type="curve" smooth="yes"/>
			<point x="133" y="780"/>
			<point x="185" y="816"/>
			<point x="198" y="897" type="curve"/>
		</contour>
	</outline>
	<anchor name="_top.UC" x="0" y="750"/>
</glyph>
<glyph name="tildecomb.narrow" format="2">
	<outline>
		<contour>
			<point x="93" y="739" type="line"/>
			<point x="88" y="697"/>
			<point x="75" y="677"/>
			<point x="60" y="677" type="curve" smooth="yes"/>
			<point x="48" y="677"/>
			<point x="36" y="685"/>
			<point x="18" y="700" type="curve" smooth="yes"/>
			<point x="-5" y="719"/>
			<point x="-33" y="737"/>
			<point x="-65" y="737" type="curve" smooth="yes"/>
			<point x="-113" y="737"/>
			<point x="-153" y="696"/>
			<point x="-166" y="620" type="curve"/>
			<point x="-93" y="585" type="line"/>
			<point x="-88" y="627"/>
			<point x="-76" y="647"/>
			<point x="-60" y="647" type="curve" smooth="yes"/>
			<point x="-49" y="647"/>
			<point x="-37" y="638"/>
			<point x="-19" y="624" type="curve" smooth="yes"/>
			<point x="4" y="605"/>
			<point x="33" y="587"/>
			<point x="65" y="587" type="curve" smooth="yes"/>
			<point x="113" y="587"/>
			<point x="152" y="628"/>
			<point x="165" y="704" type="curve"/>
		</contour>
	</outline>
	<anchor name="_top.LC" x="0" y="544"/>
</glyph>
<glyph name="tse.loclBGR" format="2">
	<advance width="644"/>
	<outline>
		<contour>
			<point x="246" y="-16" type="curve" smooth="yes"/>
			<point x="366" y="-16"/>
			<point x="445" y="68"/>
			<point x="442" y="192" type="curve"/>
			<point x="415" y="210" type="line"/>
			<point x="406" y="141"/>
			<point x="350" y="94"/>
			<point x="284" y="94" type="curve" smooth="yes"/>
			<point x="222" y="94"/>
			<point x="185" y="131"/>
			<point x="185" y="203" type="curve" smooth="yes"/>
			<point x="185" y="503" type="line"/>
			<point x="53" y="503" type="line"/>
			<point x="53" y="189" type="line" smooth="yes"/>
			<point x="53" y="56"/>
			<point x="128" y="-16"/>
		</contour>
		<contour>
			<point x="495" y="-137" type="line"/>
			<point x="620" y="-137" type="line"/>
			<point x="620" y="107" type="line"/>
			<point x="594" y="107" type="line"/>
			<point x="555" y="107"/>
			<point x="540" y="123"/>
			<point x="540" y="162" type="curve" smooth="yes"/>
			<point x="540" y="503" type="line"/>
			<point x="408" y="503" type="line"/>
			<point x="408" y="138" type="line"/>
			<point x="410" y="114" type="line" smooth="yes"/>
			<point x="415" y="44"/>
			<point x="461" y="0"/>
			<point x="527" y="0" type="curve"/>
			<point x="495" y="40" type="line"/>
		</contour>
	</outline>
</glyph>
<glyph name="yu.loclBGR" format="2">
	<advance width="867"/>
	<outline>
		<contour>
			<point x="555" y="-16" type="curve" smooth="yes"/>
			<point x="716" y="-16"/>
			<point x="827" y="95"/>
			<point x="827" y="252" type="curve" smooth="yes"/>
			<point x="827" y="408"/>
			<point x="716" y="519"/>
			<point x="555" y="519" type="curve" smooth="yes"/>
			<point x="394" y="519"/>
			<point x="285" y="408"/>
			<point x="285" y="252" type="curve" smooth="yes"/>
			<point x="285" y="95"/>
			<point x="394" y="-16"/>
		</contour>
		<contour>
			<point x="69" y="0" type="line"/>
			<point x="201" y="0" type="line"/>
			<point x="201" y="720" type="line"/>
			<point x="69" y="720" type="line"/>
		</contour>
		<contour>
			<point x="134" y="210" type="line"/>
			<point x="350" y="210" type="line"/>
			<point x="350" y="317" type="line"/>
			<point x="134" y="317" type="line"/>
		</contour>
		<contour>
			<point x="555" y="94" type="curve" smooth="yes"/>
			<point x="471" y="94"/>
			<point x="419" y="158"/>
			<point x="419" y="252" type="curve" smooth="yes"/>
			<point x="419" y="345"/>
			<point x="471" y="409"/>
			<point x="555" y="409" type="curve" smooth="yes"/>
			<point x="639" y="409"/>
			<point x="690" y="345"/>
			<point x="690" y="252" type="curve" smooth="yes"/>
			<point x="690" y="158"/>
			<point x="639" y="94"/>
		</contour>
	</outline>
</glyph>
<glyph name="ze.loclBGR" format="2">
	<advance width="535"/>
	<outline>
		<contour>
			<point x="235" y="-205" type="curve" smooth="yes"/>
			<point x="387" y="-205"/>
			<point x="496" y="-121"/>
			<point x="496" y="3" type="curve" smooth="yes"/>
			<point x="496" y="83"/>
			<point x="445" y="149"/>
			<point x="373" y="169" type="curve"/>
			<point x="441" y="190"/>
			<point x="484" y="251"/>
			<point x="484" y="327" type="curve" smooth="yes"/>
			<point x="484" y="438"/>
			<point x="381" y="519"/>
			<point x="247" y="519" type="curve" smooth="yes"/>
			<point x="153" y="519"/>
			<point x="79" y="488"/>
			<point x="22" y="428" type="curve"/>
			<point x="90" y="347" type="line"/>
			<point x="133" y="389"/>
			<point x="182" y="409"/>
			<point x="240" y="409" type="curve" smooth="yes"/>
			<point x="301" y="409"/>
			<point x="357" y="383"/>
			<point x="357" y="316" type="curve" smooth="yes"/>
			<point x="357" y="253"/>
			<point x="313" y="216"/>
			<point x="252" y="216" type="curve" smooth="yes"/>
			<point x="160" y="216" type="line"/>
			<point x="160" y="112" type="line"/>
			<point x="254" y="112" type="line" smooth="yes"/>
			<point x="320" y="112"/>
			<point x="367" y="81"/>
			<point x="367" y="11" type="curve" smooth="yes"/>
			<point x="367" y="-67"/>
			<point x="308" y="-95"/>
			<point x="236" y="-95" type="curve" smooth="yes"/>
			<point x="170" y="-95"/>
			<point x="117" y="-73"/>
			<point x="77" y="-30" type="curve"/>
			<point x="7" y="-111" type="line"/>
			<point x="62" y="-172"/>
			<point x="141" y="-205"/>
		</contour>
	</outline>
</glyph>
<glyph name="zero.percent" format="2">
	<advance width="377"/>
	<outline>
		<contour>
			<point x="188" y="-11" type="curve" smooth="yes"/>
			<point x="283" y="-11"/>
			<point x="356" y="62"/>
			<point x="356" y="157" type="curve" smooth="yes"/>
			<point x="356" y="252"/>
			<point x="283" y="324"/>
			<point x="188" y="324" type="curve" smooth="yes"/>
			<point x="93" y="324"/>
			<point x="21" y="252"/>
			<point x="21" y="157" type="curve" smooth="yes"/>
			<point x="21" y="62"/>
			<point x="93" y="-11"/>
		</contour>
		<contour>
			<point x="188" y="84" type="curve" smooth="yes"/>
			<point x="149" y="84"/>
			<point x="120" y="115"/>
			<point x="120" y="157" type="curve" smooth="yes"/>
			<point x="120" y="198"/>
			<point x="149" y="230"/>
			<point x="188" y="230" type="curve" smooth="yes"/>
			<point x="227" y="230"/>
			<point x="256" y="198"/>
			<point x="256" y="157" type="curve" smooth="yes"/>
			<point x="256" y="115"/>
			<point x="227" y="84"/>
		</contour>
	</outline>
</glyph>
<glyph name="zhe.loclBGR" format="2">
	<advance width="858"/>
	<outline>
		<contour>
			<point x="686" y="0" type="line"/>
			<point x="846" y="0" type="line"/>
			<point x="624" y="256" type="line"/>
			<point x="837" y="503" type="line"/>
			<point x="684" y="503" type="line"/>
			<point x="477" y="261" type="line"/>
			<point x="466" y="261" type="line"/>
		</contour>
		<contour>
			<point x="12" y="0" type="line"/>
			<point x="172" y="0" type="line"/>
			<point x="392" y="261" type="line"/>
			<point x="381" y="261" type="line"/>
			<point x="174" y="503" type="line"/>
			<point x="21" y="503" type="line"/>
			<point x="234" y="256" type="line"/>
		</contour>
		<contour>
			<point x="364" y="0" type="line"/>
			<point x="494" y="0" type="line"/>
			<point x="494" y="720" type="line"/>
			<point x="364" y="720" type="line"/>
		</contour>
	</outline>
</glyph>
